<?xml version="1.0" encoding="UTF-8"?>
<svg id="Capa_1" data-name="Capa 1" xmlns="http://www.w3.org/2000/svg" viewBox="0 0 1374.59 1080">
  <defs>
    <style>
      .cls-1 {
        fill: #fff;
      }

      .cls-2 {
        fill: #979797;
      }

      .cls-3 {
        fill: #bebebe;
      }
    </style>
  </defs>
  <path class="cls-2" d="m985.37,202.22h-29.74l-295.94,193.24,142.4,159.31h183.28V202.22Z"/>
  <path d="m633.26,554.89h-352.58V202.34h391.82l-39.24,352.55Z"/>
  <path class="cls-1" d="m552.87,378.5h-55.24v-59l55.24,59Zm-48.17,109.72h-48.19v19.26l-33.9-44.44c25.8-4.78,39.15-18.14,39.15-41.38,0-5.73-.84-10.84-2.45-15.4h45.39v81.95Zm-144.56-81.95h37.61c15.44,0,21.71,5.98,21.71,15.4s-6.27,15.62-21.71,15.62h-37.61v-31.01Zm96.36-69.84v63.78c-8.76-14.78-28.9-21.64-58.75-21.71,26.64-2.7,51.3-17.08,58.75-42.07m137.48-95.41h-41.12l-55.24,58.86v-58.86h-79.87v78.12c0,16.75-12.37,26.45-28.79,26.45s-28.83-9.7-28.83-26.45v-78.12h-41.12v78.74c0,35.25,28.46,55.47,60.57,58.75h-60.57v137.49h41.12v-50.98h17.95l37.99,50.98h177.91v-27.77h-48.2v-81.95h48.2v-36.27l-58.93-60.32,58.93-60.16v-8.5Z"/>
  <path class="cls-3" d="m955.63,202.22c5-13.97,8.97-28.71,11.97-44.19h-334.78v396.73h169.31l-121.58-159.31c145.3-26.75,237.86-89.76,275.08-193.24"/>
  <g>
    <rect x="1080.96" y="850.66" width="12.95" height="70.79"/>
    <rect x="1057.21" y="871.62" width="12.77" height="49.84"/>
    <path d="m1063.61,849.17c-4.69,0-8.58,3.71-8.58,8.48,0,4.51,3.89,8.37,8.58,8.37s8.37-3.85,8.37-8.37c0-4.76-3.79-8.48-8.37-8.48Z"/>
    <path d="m1023.19,883.18c4.8,0,8.48,2.58,10.59,6.69h13.57c-2.8-11.68-12.48-18.77-23.83-18.77-13.97,0-25.75,10.69-25.75,25.53s11.39,25.32,25.25,25.32c10.55,0,20.85-6.18,24.01-18.04h-13.64c-2.19,3.67-5.68,5.96-10.19,5.96-6.98,0-12.55-5.56-12.55-13.35s5.57-13.35,12.55-13.35Z"/>
    <path d="m970.05,871.11c-8.37,0-13.06,4.07-15.17,6.58h-1.67l-1.71-6.07h-10.15v49.88h13.17v-23.46c0-13.06,8.36-15.64,13.06-15.35,9.56.51,8.37,13.06,8.37,14.77v24.05h13.24v-27.03h0c0-13.75-6.26-23.35-19.14-23.35Z"/>
    <path d="m916.1,895.04c0,13.06-7.17,15.35-11.57,15.35-8.58,0-9.06-8.58-9.06-14.77v-24.01h-13.57v27.03c0,13.97,6.76,23.32,20.04,23.32,8.15,0,12.55-3.56,14.55-6.08h1.31l1.79,5.6h9.96v-49.88h-13.46v23.43Z"/>
    <path d="m848.07,871.11c-13.35,0-25.72,9.56-25.72,25.53s11.79,25.32,25.32,25.32,25.65-9.68,25.65-25.54-11.79-25.32-25.25-25.32Zm0,39.28c-7.57,0-12.66-6.07-12.66-13.86s5.09-13.86,12.66-13.86,12.19,6.08,12.19,13.86-4.58,13.86-12.18,13.86Z"/>
    <path d="m788.34,864.34c6.18,0,10.87,2.69,13.46,8.26h15.06c-3.97-13.35-15.35-21.43-28.71-21.43-18.26,0-31.43,14.95-31.43,35.4s13.28,35.4,31.5,35.4c13.5,0,24.66-8.08,28.63-21.43h-15.06c-2.58,5.57-7.05,8.26-13.24,8.26-11.49,0-18.08-9.27-18.08-22.22s6.51-22.23,17.86-22.23Z"/>
    <path d="m705.87,871.11c-7.39,0-11.97,3.2-14.37,5.71h-1.67v-26.16h-12.66v70.83h13.35v-23.46c0-13.06,8.47-15.35,12.84-15.35,8.99,0,8.19,9.9,8.19,14.77v24.05h13.39v-27.03h0c0-13.75-6.19-23.35-19.06-23.35Z"/>
    <path d="m645.05,883.18c4.76,0,8.47,2.58,10.54,6.69h13.57c-2.8-11.68-12.48-18.77-23.83-18.77-13.97,0-25.72,10.69-25.72,25.53s11.35,25.32,25.21,25.32c10.58,0,20.85-6.18,24.05-18.04h-13.68c-2.18,3.67-5.67,5.97-10.15,5.97-6.99,0-12.59-5.56-12.59-13.35s5.6-13.35,12.59-13.35Z"/>
    <path d="m598.26,877.11h-1.6l-1.78-5.49h-10.19v49.84h13.28v-25.21c0-9.16,7.27-12.76,14.26-12.76,1.46.01,2.92.14,4.36.4v-12.77h-3.09c-8.15,0-13.06,3.78-15.25,6Z"/>
    <path d="m571.46,904.72v-13.24c0-14.48-8.41-20.37-20.26-20.37s-19.46,6.18-20.33,15.06h12.44s.51-4.29,7.6-4.29c5.09,0,8.26,2.11,8.47,7.89-9.57.51-30.81,1.89-30.81,17.43,0,8.98,7.17,14.77,18.44,14.77,7.79,0,12.77-2.8,15.76-6.88,1.71,4.29,5.78,6.37,11.57,6.37h2.98v-9.57h0c-3.78,0-5.86-1.38-5.86-7.17Zm-12.29-4.18c-.8,13.24-18.04,13.86-18.04,6.29,0-5.2,8.98-6.29,18.04-7.31v1.02Z"/>
    <path d="m497.83,871.11c-13.13,0-24.81,9.56-24.81,25.03s11.75,25.83,25.21,25.83c9.79,0,18.88-5.49,22.66-15.46h-12.59s-2.87,4.18-9.68,4.18c-5.38,0-11.57-2.76-13.06-10.33h36.42c1.6-20.37-11.39-29.25-24.16-29.25Zm-11.46,19.17c2-5.2,6.4-8.3,11.86-8.3,5.02,0,9.09,2.4,10.59,8.3h-22.44Z"/>
    <path d="m447.48,881.69c5.09,0,6.69,2.87,7.09,4.59h12.26c-.62-8.36-7.97-15.17-19.14-15.17-9.68,0-19.06,4.98-19.06,14.77,0,11.35,12.66,13.75,18.56,15.06,3.38.8,6.88,1.89,6.88,5.57,0,2.11-1.2,4.8-6.3,4.8-6.07,0-8.08-3.89-8.37-6.88h-12.26c.58,10.55,9.45,17.53,20.92,17.53,10.29,0,18.77-5.68,18.77-15.93s-8.98-13.28-17.86-15.17c-2.98-.58-7.46-1.6-7.46-4.98,0-2.11,1.78-4.19,5.96-4.19Z"/>
    <path d="m396.11,871.11c-13.17,0-24.81,9.56-24.81,25.03s11.75,25.83,25.21,25.83c9.79,0,18.84-5.49,22.63-15.46h-12.55s-2.87,4.18-9.68,4.18c-5.38,0-11.57-2.76-13.06-10.33h36.42c1.56-20.37-11.39-29.25-24.16-29.25Zm-11.46,19.17c2-5.2,6.36-8.3,11.86-8.3,4.99,0,9.09,2.4,10.59,8.3h-22.44Z"/>
    <path d="m365.01,873.11c0-13.75-10.19-21.43-21.65-21.43h-24.63v69.77h12.66v-25.61h8.29l14.84,25.61h14.77l-16.88-28.01c7.21-3.49,12.59-10.77,12.59-20.33Zm-22.63,10.37h-10.99v-19.36h10.99c5.56,0,9.46,3.42,9.46,9.21s-3.78,10.15-9.46,10.15Z"/>
    <path d="m805.1,788.71c-3.02-.62-7.49-1.6-7.49-4.98,0-2.11,1.78-4.18,6-4.18h0c5.05,0,6.65,2.88,7.05,4.58h12.26c-.58-8.4-7.97-15.17-19.14-15.17-9.68,0-19.06,4.98-19.06,14.77,0,11.34,12.7,13.75,18.55,15.05,3.42.8,6.91,1.9,6.91,5.57,0,2.11-1.2,4.8-6.29,4.8-6.08,0-8.08-3.89-8.37-6.91h-12.29c.62,10.58,9.49,17.57,20.95,17.57,10.26,0,18.74-5.68,18.74-15.97s-8.95-13.24-17.82-15.14Z"/>
    <path d="m775.27,804.36h-12.58s-2.88,4.18-9.64,4.18c-5.38,0-11.56-2.8-13.06-10.37h36.38c1.6-20.34-11.35-29.21-24.12-29.21s-24.84,9.57-24.84,25.03,11.78,25.83,25.24,25.83c9.79,0,18.84-5.49,22.63-15.46Zm-22.63-24.52c4.98,0,9.06,2.37,10.55,8.26h-22.41c1.96-5.17,6.37-8.26,11.86-8.26Z"/>
    <rect x="705.39" y="769.43" width="12.73" height="49.87"/>
    <path d="m711.76,763.87c4.58,0,8.36-3.89,8.36-8.37v-.09c0-4.62-3.74-8.38-8.36-8.38-4.69,0-8.59,3.67-8.59,8.47,0,4.47,3.89,8.37,8.59,8.37Z"/>
    <path d="m699.9,815.63l-4.8-8.88s-2.8,1.67-5.78,1.67c-3.6,0-6.37-2.59-6.37-5.97v-22.33h12.55v-10.66h-12.55v-14.95h-12.08v9.96c0,3.57-2.29,5.86-5.68,5.86h-4.98v9.78h9.96v23.14c0,10.08,8.26,16.56,17.82,16.56,7.68,0,11.9-4.18,11.9-4.18Z"/>
    <rect x="640.35" y="769.43" width="12.77" height="49.87"/>
    <path d="m638.17,755.5c0,4.47,3.89,8.37,8.55,8.37s8.41-3.89,8.41-8.37c0-4.81-3.79-8.47-8.41-8.47s-8.55,3.67-8.55,8.47Z"/>
    <path d="m595.17,795.88c0-13.06,8.37-15.64,13.06-15.35,9.57.51,8.36,13.06,8.36,14.77v24.01h13.28v-27.03c0-13.75-6.29-23.32-19.14-23.32-8.4,0-13.06,4.07-15.17,6.59h-1.71l-1.67-6.08h-10.19v49.84h13.16v-23.43Z"/>
    <path d="m525.87,805.05c0,8.98,7.17,14.77,18.44,14.77,7.79,0,12.77-2.81,15.75-6.88,1.71,4.29,5.79,6.36,11.57,6.36h2.98v-9.57h0c-3.78,0-5.86-1.38-5.86-7.16v-13.28c0-14.44-8.4-20.33-20.26-20.33s-19.46,6.18-20.33,15.05h12.44s.51-4.29,7.61-4.29c5.09,0,8.26,2.11,8.47,7.86-9.56.51-30.81,1.93-30.81,17.46Zm30.59-7.67v1.02h0c-.81,13.24-18.04,13.86-18.04,6.26,0-5.17,8.99-6.26,18.04-7.27Z"/>
    <path d="m473.41,795.3v24.01h13.13v-23.43c0-14.04,6.58-15.17,8.98-15.35,9.17-.8,8.48,7.89,8.48,14.77v24.01h13.28v-27.03c0-13.86-5.89-23.54-18.85-23.43-8.08.11-12.66,3.89-15.17,6.98h-1.49c-3.31-4.36-8.08-6.98-13.68-6.88-6.15.11-10.15,3.38-12.04,5.89h-1.6l-1.49-5.38h-10.19v49.84h13.17v-23.43c0-14.04,6.59-15.17,8.99-15.35,9.17-.8,8.48,7.89,8.48,14.77Z"/>
    <path d="m431.03,769.47h-13.5v23.43c0,13.06-7.17,15.35-11.57,15.35-8.54,0-9.06-8.59-9.06-14.77v-24h-13.57v27.03c0,13.93,6.8,23.32,20.04,23.32,8.19,0,12.59-3.6,14.55-6.08h1.31l1.78,5.57h10v-49.84Z"/>
    <polygon points="332.19 790.31 359.73 790.31 359.73 819.31 373.16 819.31 373.16 749.53 359.73 749.53 359.73 777.62 332.19 777.62 332.19 749.53 318.74 749.53 318.74 819.31 332.19 819.31 332.19 790.31"/>
    <path d="m675.34,717.67c5.39,0,9.57-1.89,12.66-5.31h1.49l1.42,4.8h9.75v-70.79h-12.44v25.83c-3.2-3.6-7.67-5.39-12.88-5.39-12.66,0-23.25,10.37-23.25,25.43s10.58,25.43,23.24,25.43Zm1.89-38.6c6.47,0,10.99,4.88,10.99,13.17s-4.51,13.13-10.99,13.13c-6.07,0-12.15-4.37-12.15-13.13s6.07-13.17,12.15-13.17Z"/>
    <path d="m608.85,693.73c0-13.06,8.36-15.68,13.06-15.35,9.57.47,8.36,13.06,8.36,14.73v24.05h13.28v-27.03c0-13.75-6.29-23.32-19.17-23.32-8.36,0-13.06,4.08-15.17,6.59h-1.68l-1.71-6.11h-10.15v49.87h13.17v-23.43Z"/>
    <path d="m539.51,702.9c0,8.98,7.2,14.77,18.48,14.77,7.75,0,12.73-2.8,15.75-6.91,1.67,4.29,5.79,6.4,11.53,6.4h3.02v-9.56c-3.78,0-5.89-1.38-5.89-7.17v-13.28c0-14.48-8.37-20.33-20.23-20.33s-19.47,6.18-20.37,15.05h12.48s.51-4.29,7.56-4.29c5.1,0,8.3,2.08,8.48,7.86-9.57.51-30.81,1.89-30.81,17.46Zm30.63-7.67v.98c-.8,13.28-18.04,13.86-18.04,6.29,0-5.17,8.98-6.29,18.04-7.27Z"/>
    <path d="m485.85,706.97c-6.08,0-8.08-3.86-8.36-6.88h-12.26c.58,10.58,9.45,17.57,20.95,17.57,10.26,0,18.73-5.68,18.73-15.97s-8.98-13.24-17.86-15.17c-2.98-.58-7.46-1.56-7.46-4.98,0-2.08,1.78-4.19,5.97-4.19,5.09,0,6.69,2.91,7.09,4.59h12.26c-.58-8.37-7.97-15.14-19.13-15.14-9.68,0-19.06,4.99-19.06,14.74,0,11.39,12.66,13.78,18.55,15.06,3.38.8,6.88,1.89,6.88,5.6,0,2.07-1.2,4.77-6.29,4.77Z"/>
    <path d="m432.12,701.12c0,10.08,8.26,16.55,17.86,16.55,7.64,0,11.86-4.18,11.86-4.18l-4.8-8.88s-2.8,1.67-5.79,1.67c-3.56,0-6.36-2.58-6.36-5.96v-22.34h12.55v-10.66h-12.55v-14.99h-12.08v9.96c0,3.6-2.29,5.9-5.68,5.9h-4.99v9.78h9.97v23.14Z"/>
    <path d="m398.01,691.91c0-9.16,7.28-12.73,14.26-12.73,1.48,0,2.95.12,4.4.36v-12.73h-3.09c-8.19,0-13.06,3.79-15.24,5.97h-1.6l-1.82-5.46h-10.15v49.83h13.24v-25.25Z"/>
    <path d="m332.01,701.91h26.12l4.88,15.24h14.37l-23.54-69.81h-17.57l-23.53,69.81h14.37l4.91-15.24Zm11.86-36.6h2.36l7.89,24.23h-18.15l7.89-24.23Z"/>
  </g>
</svg>