<svg width="25" height="25" viewBox="0 0 25 25" fill="none" xmlns="http://www.w3.org/2000/svg">
<path d="M17.8954 2.96704H7.89539C5.13396 2.96704 2.89539 5.20562 2.89539 7.96704V17.967C2.89539 20.7285 5.13396 22.967 7.89539 22.967H17.8954C20.6568 22.967 22.8954 20.7285 22.8954 17.967V7.96704C22.8954 5.20562 20.6568 2.96704 17.8954 2.96704Z" stroke="black" stroke-width="1" stroke-linecap="round" stroke-linejoin="round"/>
<path d="M16.8953 12.3371C17.0187 13.1693 16.8766 14.0193 16.4891 14.7661C16.1016 15.5129 15.4885 16.1185 14.737 16.4968C13.9854 16.875 13.1338 17.0067 12.3031 16.873C11.4725 16.7394 10.7051 16.3472 10.1102 15.7523C9.51525 15.1573 9.12307 14.39 8.9894 13.5593C8.85574 12.7287 8.9874 11.877 9.36566 11.1255C9.74392 10.374 10.3495 9.76084 11.0963 9.37334C11.8431 8.98584 12.6931 8.84369 13.5253 8.9671C14.3743 9.09298 15.1602 9.48856 15.767 10.0954C16.3739 10.7022 16.7695 11.4882 16.8953 12.3371Z" stroke="black" stroke-width="1" stroke-linecap="round" stroke-linejoin="round"/>
<path d="M19.9838 7.27998C20.0301 7.59207 19.9767 7.91081 19.8314 8.19085C19.6861 8.4709 19.4562 8.698 19.1744 8.83985C18.8926 8.9817 18.5732 9.03107 18.2617 8.98095C17.9502 8.93082 17.6624 8.78375 17.4393 8.56066C17.2162 8.33756 17.0692 8.0498 17.0191 7.7383C16.9689 7.42681 17.0183 7.10744 17.1601 6.82562C17.302 6.5438 17.5291 6.31388 17.8091 6.16857C18.0892 6.02325 18.4079 5.96995 18.72 6.01623C19.0384 6.06343 19.3331 6.21177 19.5607 6.43934C19.7882 6.66691 19.9366 6.96163 19.9838 7.27998Z" fill="black"/>
</svg>
