<?xml version="1.0" encoding="UTF-8"?>
<svg id="Capa_1" data-name="Capa 1" xmlns="http://www.w3.org/2000/svg" viewBox="0 0 1374.59 1080">
  <defs>
    <style>
      .cls-1 {
        fill: #fff;
      }

      .cls-2 {
        fill-rule: evenodd;
      }
    </style>
  </defs>
  <path class="cls-1" d="m185.8,158.04h1002.99v763.93H185.8V158.04Z"/>
  <path class="cls-2" d="m1053.6,500.8c-8.26,2.46-17.41,4.69-21.43,4.69,5.36-10.05,12.06-18.09,18.76-24.57,4.02-4.02,10.71-9.15,17.42-9.15,5.8,0,8.26,2.46,8.26,8.04,0,10.71-11.17,17.19-23,20.98h0Zm11.62,36.19c1.34-1.79-1.12-4.25-2.9-1.79-5.59,6.26-15.41,14.52-25.9,14.52-8.93,0-14.07-6.03-14.07-15.85,0-7.37,3.8-16.75,6.7-21.44,6.48-1.34,19.42-4.25,25.67-6.03,21.21-6.48,33.26-13.84,33.26-27.47,0-9.38-6.47-12.72-15.18-12.72-25.67,0-64.07,36.62-64.07,71.46,0,11.17,7.15,19.88,19.43,19.88,16.07,0,28.8-9.82,37.06-20.54h0Zm10.05-238.51c.89,0,2-.66,1.78-2.01l-3.8-25.9c-.45-1.79-1.11-2.24-2.23-2.24-.67,0-1.34.45-2.01,1.56-1.12,2.23-2.9,4.24-6.25,4.24-5.8,0-11.16-4.24-25-4.24-18.08,0-41.97,7.81-41.97,33.95s20.98,34.84,39.07,41.3c18.97,6.93,34.15,12.29,34.15,31.94,0,22.11-15.63,29.25-30.36,29.25-16.3,0-35.49-7.81-42.41-33.49-.67-2.24-1.34-2.68-2.9-2.68-1.34,0-2.46.89-2.46,3.35v33.28c0,2,1.12,2.9,2.23,2.9.89,0,1.79-.67,2.24-1.56,1.34-2.01,2.9-3.8,6.69-3.8,7.37,0,16.07,8.93,37.28,8.93,18.53,0,50.01-5.8,50.01-42.42,0-14.52-6.03-33.27-41.3-43.1-25-6.93-33.05-17.42-33.05-30.37,0-10.94,6.48-21.67,24.56-21.67,8.93,0,23.44,2.46,33.26,21.44,1.12,1.34,1.79,1.34,2.46,1.34h0Zm-107.38-6.25c2.67,0,5.36-.67,5.8-1.12-.23,3.8-3.58,9.61-12.72,11.39-.67.23-1.34.9-1.34,1.79s.66,1.78,2.01,1.78c13.39,0,20.98-12.06,20.98-22.1,0-8.93-6.03-14.3-13.4-14.3-5.36,0-12.28,2.68-12.28,11.39,0,8.04,5.8,11.17,10.94,11.17h0Zm23.44,185.35c0,5.59-2.23,13.18-6.92,21.44-9.15,14.74-16.3,17.64-22.55,17.64-5.36,0-7.58-4.24-7.58-10.49,0-5.37,2.23-12.51,6.47-18.77,6.26-9.82,14.96-18.08,22.78-18.08,5.13,0,7.81,2.67,7.81,8.26h0Zm-42.64,115.46c-21.43,0-27.91-12.51-27.91-18.54s2.24-9.61,8.26-13.63c4.02-2.9,10.05-5.8,14.74-7.58,5.36,2.23,13.17,6.92,15.85,9.38,11.61,8.04,13.83,12.73,13.83,16.97,0,10.71-16.52,13.4-24.78,13.4h0Zm67.86-118.81c2.24,0,4.47-1.12,4.47-5.14,0-3.58-3.35-4.68-6.48-4.68-3.57,0-8.03.89-12.73,4.01-1.11.9-4.01,2.24-5.8,1.12-3.56-2.46-6.92-4.24-15.63-4.24s-21.43,5.14-29.69,16.3c-5.8,8.26-6.92,14.07-6.92,19.88s2.46,10.05,4.02,12.51c.45.66.66.89.66,1.56,0,1.34-1.78,2.23-4.68,3.12-5.13,1.79-13.84,6.7-13.84,15.64,0,5.8,4.69,11.39,9.82,14.96,0,0-10.71,2.9-19.2,7.6-6.69,3.56-14.06,9.38-14.06,17.41,0,9.39,8.04,24.57,40.86,24.57,19.2,0,31.25-6.92,35.94-12.28,3.57-4.02,4.02-8.72,4.02-11.62,0-10.5-11.61-20.32-24.33-27.47-8.26-4.68-20.09-10.27-20.09-18.53,0-2.24.66-4.47,2.9-5.81,1.56-1.11,4.02-1.78,6.69-1.78,3.58,0,8.26,1.12,11.61,1.12,10.5,0,24.56-3.58,33.49-22.11,2.24-5.14,3.35-10.5,3.35-14.96,0-5.8-.89-7.14-.89-9.82,0-2.23,2.24-3.58,6.69-3.58,6.03-.22,6.03,2.24,9.82,2.24h0Zm-119.88,26.57c-8.26,2.46-17.19,4.69-21.43,4.69,5.59-10.05,12.28-18.09,18.97-24.57,4.02-4.02,10.71-9.15,17.42-9.15,5.58,0,8.26,2.46,8.26,8.04,0,10.71-11.16,17.19-23.22,20.98h0Zm11.62,36.19c1.56-1.79-1.12-4.25-2.91-1.79-5.57,6.26-15.4,14.52-25.9,14.52-9.15,0-14.06-6.03-14.06-15.85,0-7.37,3.79-16.75,6.7-21.44,6.46-1.34,19.64-4.25,25.67-6.03,21.43-6.48,33.26-13.84,33.26-27.47,0-9.38-6.48-12.72-15.18-12.72-25.67,0-64.07,36.62-64.07,71.46,0,11.17,7.37,19.88,19.65,19.88,15.84,0,28.57-9.82,36.84-20.54h0Zm-56.71-97.15c0,.67-.22,1.78-.89,2.9-15.63,34.16-31.25,68.11-46.43,102.28-.89,1.79-2.23,5.14-2.23,7.59,0,2.9,2.23,5.36,5.13,5.36,1.56,0,3.58-.66,4.91-1.11,8.49-3.36,17.42-12.74,22.78-20.78,1.11-1.78-.89-3.35-2.24-2.23-2.23,2.01-8.26,10.05-14.51,13.62-1.12.67-2.24.67-1.56-1.78l48.44-107.63c.89-2.01,1.12-3.13,1.12-4.25,0-1.34-.89-2.01-2.24-2.01-2.23,0-5.13.67-8.48.89-2.9.23-8.04.67-12.51.9-1.11,0-1.78,1.11-1.78,2.01,0,1.11.89,1.78,2.23,1.78,2.24,0,4.69,0,7.15.67.89.45,1.11,1.11,1.11,1.78Zm85.28-74.36c0-11.84,8.7-12.95,16.3-13.63,2.9-.45,3.57-5.14-.67-5.14h-58.71c-4.02,0-4.02,5.37,0,5.59,11.61.67,20.98,2.9,20.98,14.07v21.21c0,4.69-2.23,8.04-4.91,9.82-10.26,8.49-23.21,9.16-30.81,9.16-37.28,0-54.02-32.15-54.02-64.32,0-26.12,13.17-66.99,56.26-66.99,38.62,0,52.46,25.02,57.15,34.61,1.56,2.91,5.14,2.24,5.14,0v-30.81c0-2.91-4.25-3.58-5.14,0-.89,3.56-3.13,5.8-6.03,5.8-2.23,0-5.13-1.79-6.25-2.46-11.61-7.37-22.77-13.18-44.87-13.18-35.72,0-79.7,17.86-79.7,72.13s41.29,71.69,77.46,71.69,54.26-18.09,57.61-20.32v-27.24h.22,0Zm-128.59,74.36c0,.67-.23,1.78-.89,2.9-15.63,34.16-31.25,68.11-46.43,102.28-.67,1.79-2.24,5.14-2.24,7.59,0,2.9,2.24,5.36,5.14,5.36,1.56,0,3.58-.66,4.91-1.11,8.48-3.36,17.41-12.74,22.77-20.78,1.12-1.78-.89-3.35-2.23-2.23-2.01,2.01-8.26,10.05-14.52,13.62-1.11.67-2.23.67-1.56-1.78l48.44-107.63c.89-2.01,1.11-3.13,1.11-4.25,0-1.34-.89-2.01-2.46-2.01-2.23,0-5.13.67-8.48.89-2.9.23-8.04.67-12.51.9-1.11,0-1.78,1.11-1.78,2.01,0,1.11.89,1.78,2.23,1.78,2.24,0,4.69,0,7.15.67,1.11.45,1.34,1.11,1.34,1.78h0Zm-68.98,29.04c8.7,0,10.71,7.37,10.5,14.51,0,23.45-26.8,68.11-44.88,68.11-7.37,0-10.49-5.36-10.49-12.28,0-26.57,26.57-70.34,44.87-70.34h0Zm-4.02-5.37c-26.11,0-50,32.83-50,66.56,0,13.84,6.25,27.46,23.21,27.46,26.79,0,48.89-38.4,48.89-62.53,0-15.18-3.58-31.49-22.1-31.49Zm-93.31-193.39c-4.02,0-4.02,4.02-1.78,4.69,4.46.89,13.83,1.78,13.83,14.07.23,28.81.23,66.76-.89,97.58-.22,10.94-3.58,20.33-12.94,21.44-3.58.23-3.58,4.25-1.12,4.25h41.97c2.24,0,3.13-3.8.23-4.25-6.48-1.11-16.97-1.11-17.64-21.44-.89-19.88-1.56-94.68-1.56-94.68l105.15,117.01h8.71s0-109.42.67-117.69c.66-9.6,3.79-14.96,14.28-15.63,5.14-.45,4.25-5.14.67-5.14h-42.64c-5.13,0-3.79,4.69-1.56,4.69,4.69.66,19.2,2.23,19.87,16.3.67,20.32,1.56,83.74,1.56,83.74l-93.54-104.73h-33.26v-.23h0Zm37.5,205.01c1.12,0,2.01-.67,2.24-1.78l9.37-29.71c.67-1.78-.22-2.9-1.78-2.9-.66,0-1.34.23-2.01.89-1.78,1.79-3.79,3.58-5.58,3.58-.89,0-1.79-.66-2.68-1.34-8.26-10.27-21.66-11.83-28.12-11.83-29.7,0-55.37,19.43-70.33,43.33-9.15,14.06-13.83,29.7-13.83,45.11,0,24.56,16.96,38.19,39.07,38.19,9.82,0,17.41-1.12,30.81-6.7,2.9-1.11,6.25-2.46,8.26-2.46,3.35,0,3.58,4.92,3.79,9.39,0,1.78,1.12,2.23,2.24,2.23.89,0,1.78-.45,2.23-1.79l12.51-35.5c.89-2.9-.23-4.02-1.35-4.02-1.78,0-2.67.67-4.01,3.13-5.59,8.7-9.61,14.29-29.02,23.9-8.26,3.79-17.64,6.25-25.23,6.25-16.52,0-22.99-12.72-22.99-28.58,0-20.99,9.82-42.88,25-61.19,9.61-12.06,24.56-25.69,41.75-25.69s28.8,12.29,27.01,34.84c-.23,1.79,1.12,2.68,2.67,2.68h0Zm-75-85.3v-98.71c0-12.28,8.7-15.63,18.08-16.3,3.56,0,4.01-4.69-.67-4.69h-58.27c-4.02,0-4.68,4.47-.66,4.69,8.7.89,19.19,5.14,19.19,16.3v98.71c0,10.94-4.02,18.08-16.96,18.08-5.14,0-3.79,4.25,0,4.25h57.38c2.9,0,3.79-4.25-1.12-4.25-12.28,0-16.96-8.26-16.96-18.08h0Zm-137.75-98.48c0,3.58-1.12,6.69-2.67,8.26-5.36,10.05-12.95,20.77-23.9,33.27-27.89,31.26-65.18,68.11-77.9,76.6-4.02,2.9-5.14,0-5.14-2.9,0-2.24,0-57.4.89-92.9.9-35.51,27.46-36.18,34.38-36.85,7.14-.67,4.68-7.37.67-7.37h-109.4c-4.68,0-5.13,6.92-1.12,6.92,25.68,0,35.5,15.85,35.73,27.47.66,16.96,1.56,171.51,0,208.13-1.35,35.5-23.45,36.62-32.82,37.29-6.26.45-6.26,6.92.66,6.92,4.02,0,33.26-.89,54.25-.89,24.34,0,39.07,0,58.71.89,5.8.23,3.35-7.6-.66-7.6-33.05,0-38.85-20.32-40.63-34.39-1.79-13.84-1.34-77.71-.67-85.3.67-8.04,7.6-5.8,10.5-4.02,16.29,10.94,115.86,131.31,115.86,131.31h80.37c4.68,0,3.56-6.7,0-6.92-13.84-1.12-26.8-2.24-45.32-17.42-17.85-14.52-120.77-137.12-120.77-137.12,0,0,45.77-48.24,81.26-80.85,34.38-31.48,53.57-36.18,57.59-37.29,4.25-1.11,3.58-7.37-2.23-6.92-9.38.45-28.58,1.12-41.97,1.12-23.22,0-42.64-1.56-46.66-1.56-6.25,0-7.58,6.92-.67,8.04,4.69.89,9.16,1.34,14.07,3.13,5.8,2.23,7.58,6.48,7.58,10.94Zm493.37,313.09c-2.24,0-2.9,4.02.22,4.02,3.58,0,10.94.89,10.94,11.61l-.67,86.21c0,9.38-3.35,17.19-12.05,17.19-2.9,0-2.9,3.8-.67,3.8h35.95c2.23,0,2.23-3.8-.45-3.8-5.14,0-14.29-2.23-14.52-17.19l-.89-87.76s91.98,108.08,92.65,108.75h6.25l.67-103.62c0-10.27,4.47-15.63,15.63-15.63,2.23,0,2.23-3.58,0-3.58h-40.18c-2.24,0-2.24,3.58,0,3.58,4.02,0,16.52.66,16.75,14.07l.89,75.48-79.03-93.13h-31.47Zm-110.95,60.52c0-31.48,14.51-55.6,41.29-55.6,23.88,0,41.97,23,41.97,55.6,0,40.2-16.29,57.84-41.97,57.84-25,0-41.29-24.12-41.29-57.84Zm41.29,63.43c35.95,0,61.61-25.02,61.61-63.43,0-33.72-25.01-61.19-61.61-61.19s-61.39,27.92-61.39,61.19c0,36.17,24.33,63.43,61.39,63.43Zm-172.12-107.42c0-11.17,6.48-11.62,21.43-11.62,26.12,0,52.68,12.95,52.68,54.49s-22.09,57.62-51.35,57.62h-6.25c-7.81,0-16.52-1.56-16.52-16.96v-83.52Zm-30.13-17.2c-4.02,0-3.36,4.69-.9,4.69,4.69,0,12.51,2.23,12.51,11.61v87.54c0,9.38-2.24,15.19-13.17,15.19-2.68,0-2.68,4.47-.23,4.47h58.5c25.67,0,68.08-12.29,68.08-62.97s-34.82-60.53-68.75-60.53h-56.03Zm-144.67.67c-2.23,0-2.9,4.02.23,4.02,3.58,0,10.93.89,10.93,11.61l-.66,86.21c0,9.38-3.35,17.19-12.06,17.19-2.9,0-2.9,3.8-.66,3.8h35.94c2.24,0,2.24-3.8-.45-3.8-5.13,0-14.29-2.23-14.51-17.19l-.89-87.76s91.98,108.08,92.64,108.75h6.26l.66-103.62c0-10.27,4.47-15.63,15.63-15.63,2.24,0,2.24-3.58,0-3.58h-40.18c-2.23,0-2.23,3.58,0,3.58,4.02,0,16.53.66,16.75,14.07l.89,75.48-79.02-93.13h-31.48Zm-111.84,60.52c0-31.48,14.51-55.6,41.29-55.6,23.9,0,41.98,23,41.98,55.6,0,40.2-16.3,57.84-41.98,57.84-25,0-41.29-24.12-41.29-57.84h0Zm41.52,63.43c35.94,0,61.61-25.02,61.61-63.43,0-33.72-25-61.19-61.61-61.19s-61.4,27.92-61.4,61.19c0,36.17,24.34,63.43,61.4,63.43Zm602.76,66.32H294.35v16.97h781.58v-16.97h0Zm0-23.67H294.35v7.37h781.58v-7.37h0Zm-783.36-166.38c-2.9,0-2.68,4.02,0,3.8,10.5,0,16.75,4.47,16.75,15.18v83.3c0,12.51-8.7,15.85-15.63,15.85-2.24,0-3.13,4.47.66,4.47h107.38l6.48-34.39c.66-3.35-2.9-3.58-3.8-1.34-9.6,27.69-29.24,30.14-50,30.14s-26.35-3.57-26.35-13.4v-86.87c0-10.5,9.82-12.74,14.74-12.74,3.13,0,2.24-4.02-.22-4.02h-50.01Z"/>
</svg>
