<?xml version="1.0" encoding="UTF-8"?>
<svg id="Capa_1" data-name="Capa 1" xmlns="http://www.w3.org/2000/svg" viewBox="0 0 1374.59 1080">
  <defs>
    <style>
      .cls-1 {
        fill: #3e3e3e;
      }

      .cls-2 {
        fill-rule: evenodd;
      }
    </style>
  </defs>
  <path d="m960.3,267.17c-11.35-23.62-128.72-116.52-285.02-112.51-66.9,1.71-105.61,13.7-154.79,35.84-55.12,24.8-115.76,72.12-137.82,106.58-17.26,26.94,2.76,52.36,34,60.64,12.86,2.76,31.73-.49,55.12-5.52,44.41-9.54,76.92-23.57,88.66-29.4,40.06-19.91,126.26-62.1,186.03-75.34,120.66-26.71,219.8,32.21,213.82,19.74v-.03Z"/>
  <path class="cls-1" d="m654.17,279.14c11.86,7.31,104.71,11.27,200.02,98.04,14.65,13.34,22.32,24.93,41.21,29.17,19.71,4.42,41.44,11.2,69.31-10.53,27.3-21.3,28.4-56.93,28.48-61.56.28-18.36-6.03-32.57-9.18-39.5,0,0-8.33-18.28-23.88-33.08-41.49-39.47-149.4-25.56-168.11-22.96-33.03,4.6-81.78,14.88-137.82,40.42h-.03Z"/>
  <path class="cls-1" d="m468.62,701.28c-1.76-46.27.38-83.75,2.76-109.9,2.89-31.67,8.23-70.25,2.76-122.2-2.81-26.74-6.44-37.32-11.94-46.86-13.55-23.44-43.38-48.67-79.94-45.94-32.77,2.45-53.38,26.08-57.88,31.24-1.74,1.99-10.81,12.58-16.54,27.56-18.71,48.98,13.11,106.07,30.32,136.9,5.42,9.71,27.89,48.78,71.66,87.28,22.01,19.35,42.9,32.85,58.8,41.93Z"/>
  <path d="m310.43,428.84c-1.18-.1-2.91,7.44-6.39,22.55-2.53,11.04-4.4,20.43-5.68,27.41,0,0-4.65,27.94-4.83,57.42-.59,96.69,39.96,175.01,39.96,175.01,4.76,9.2,26.51,54.25,72.63,98.47,17.61,16.9,31.75,30.7,51,44.79,43.87,32.13,77.67,51.03,123.04,59.31,15.65,2.86,31.8,10.56,46.86,2.76,13.45-6.98,18.99-20.99,20.14-24.11,5.52-15.01,1.46-28.22-.33-33.77-2.22-6.88-5.75-13.24-21.88-31.34-16.9-18.97-28.43-29.63-28.43-29.63-25.82-23.88-58.59-51.59-82.85-69.59-3.63-2.68-16.51-12.19-33.08-25.85-2.28-1.87-3.63-3.35-6.21-5.16-6.16-4.35-9.36-4.58-10.92-5.85-13.29-10.89-40.37-25.74-47.32-33.08-29.99-31.57-30.35-28.94-50.08-53.97-10.07-12.78-16.03-23.44-22.96-35.84-10.02-17.92-21.22-37.94-27.56-62.48-10.74-41.62-2.45-76.82-5.16-77.05h.05Z"/>
  <path class="cls-1" d="m797.36,921.73c9.77-2.89,20.48-8.28,48.24-35.15,16.64-16.11,24.98-24.18,32.03-33.77,12.37-16.77,18.3-31.04,25.49-48.57,4.47-10.92,4.47-12.45,24.47-87.84,0,0,3.73-14.11,6.9-41.34,1.64-14.26,1.79-22.14-.33-22.73-1.41-.41-3.35,2.48-3.78,3.09-10.1,14.24-84.08,60.69-128.28,81.3-17.23,8.03-44.28,10.43-81.19,42.72-13.11,11.48-28.43,26.43-33.41,49.26-.56,2.58-2.63,12.71-1.02,25.85.72,5.98,3.53,26.56,20.32,44.79,14.52,15.75,31.34,20.84,37.89,22.73,14.7,4.24,27.2,3.48,32.72,3.09,10.66-.74,18.48-3.02,19.99-3.45l-.03.03Z"/>
  <path d="m792.52,923.11c-.84-1.71,29.94-12.68,61.79-45.25,7.57-7.75,19.76-20.37,30.78-39.96,10.66-18.92,16.28-37.35,23.19-59.95,2.38-7.77,3.83-13.17,6.21-22.04,6.24-23.26,11.94-44.81,15.16-70.05,1.58-12.37.64-10.51,2.53-31.7,3.27-36.66,6.57-47.58,11.94-90.04,4.81-37.99,2.71-33.54,6.44-56.73,2.35-14.62,7.26-41.67,21.14-71.89,6.98-15.19,12.3-22.6,20.45-28.25,3.37-2.33,16.95-11.4,34.69-8.26,13.98,2.48,22.47,11.09,24.8,13.55,7.41,7.77,10.12,16.18,12.4,23.88,9.77,33.29,12.86,58.57,12.86,58.57,2.22,18.25,4.4,36.05,4.14,60.64-.36,33.8-5.11,59.36-6.67,67.29-7.49,38.07-19.45,65.34-26.87,81.99-8.21,18.38-21.53,47.81-47.09,80.6-5.42,6.95-27.48,34.74-66.37,65.01-69.56,54.12-140.25,75.13-141.47,72.58h-.05Z"/>
  <g>
    <path class="cls-2" d="m772,431.19h.36c.08,1.02,2.97,9.18,3.58,11.22,2.63,8.77,6.37,19.68,9.25,28.22.41,1.2,1.64,4.81,1.64,5.85h-29.45l10.05-31.09c.2-.56.31-.87.46-1.43l4.12-12.78h0Zm-119.85-22.65h71.66c2.68.08,2.02.59,2.02,3.3,0,1.66.18,14.5-.1,15.24-.15.41-.1.2-.26.33-2.12.26-16.62.08-20.04.08-10.56,0-24.77-.31-35.2.05-1.18.05-1.46-.2-1.48.87-.08,2.99-.15,21.22,0,22.39,2.79.41,51.36.23,51.77.08.23.2.2.08.36.43.13.28.05.15.1.43l-.23,17.03c-.08.41,0,.15-.13.36-8.69.13-17.28,0-25.97,0-.61,0-25.1-.41-25.72.28-.15.2-.51,26.25-.13,27.84,4.58.41,10.2.2,14.88.23l41.47-.08c1.07.05,2.22.26,2.81-.56-.05-1.28.72-2.58,1.05-3.63,2.33-7.16,5.85-16.46,8.49-23.57l19.86-55.94c.28-.84,1.28-4.52,1.92-4.88.82-.43,7.31-.15,8.9-.15s2.76-.15,4.19-.18h11.5c1.3.18,1.41.82,2.15,2.74l13.91,38.7c.74,2.25,1.61,4.52,2.43,6.8l4.83,13.45c.38,1.15.82,2.22,1.23,3.32l15.7,43.72h-23.52c-.95-1.97-4.37-13.4-5.47-16.67l-1.41-4.19c-.18-.51-.36-.82-.46-1.28h-41.98l-.95,2.71c-.33,1.05-.54,1.76-.87,2.79l-5.16,16.62h-97.73v-103.69c0-5.91-.41-4.68,1.66-4.96.31-.05,1.74-.08,3.94-.1h0v.1Z"/>
    <path class="cls-2" d="m548.61,482.96c0,5.6,1.84,12.42,4.17,17.08,2.53,5.06,5.11,8.62,9.51,11.91,5.39,4.06,11.76,6.39,18.82,7.67,1.51.28,3.22.59,4.78.61,1.02.03,1.33.18,2.43.18s1.79.05,2.63.15c1.61.18,2.3-.05,3.81-.18h1.05c7.16,0,16.69-2.48,22.65-6.06,2.22-1.33,6.19-4.52,7.75-6.52,4.63-5.96,5.93-8.03,8.03-16,.56-2.2,1.28-5.91,1.28-8.49v-74.75h-22.47v70.4c0,7.82-2.68,16.21-10.05,19.76-5.42,2.61-16.03,2.43-21.32.13-9.02-3.96-10.61-13.37-10.61-24.06v-66.21h-22.47v74.39h0l.03-.03Z"/>
    <path class="cls-2" d="m824.07,680.55v-5.24h-25.97c-3.04,0-5.47.18-8.54.18h-17.26l-17.08.36h-17.26c-5.75,0-11.43.18-17.26.18h-17.44c-5.93,0-11.3.18-17.26.18-23.19,0-45.73.54-69,.54-2.99,0-5.37.18-8.36.18h-26.13c-5.65,0-11.43.36-17.08.36h-17.44v.69l6.29.18c.89,0,1.07.18,2.07.18h21.78c1.64,0,2.56.18,4.17.18,11.73,0,23.11.18,34.67.18,3.07,0,5.62.18,8.54.18,14.34,0,28.99.33,43.2.33,3.07,0,5.55-.18,8.54-.18,4.76,0,4.12.13,8.36.36h6.44c.97,0,1.12.18,2.07.18,6.8.08,20.99-.41,26,.15,1.56.18,14.62,0,17.38,0,2.97,0,5.47.18,8.54.18l77.9.69h0l.1-.03Z"/>
    <path class="cls-2" d="m548.1,534.53v4.7c4.35,0,19.12.2,21.78,0,5.85-.49,12.5-.08,18.66-.15.97,0,1.1-.18,2.07-.18h25.97c3.35,0,6.14-.18,9.41-.18,12.19,0,25.23-.33,37.45-.33h18.82c6.44,0,12.32-.36,18.82-.36,5.32,0,10.07.18,15.34.18,1.18,0,2.43-.26,3.48-.36h11.84c20.73,0,41.39-.36,62.05-.36,2.76,0,4.91-.18,7.67-.18h21.45c1.07.03,1.18.18,1.2-.87-18.53,0-37.5-.49-56.11-.51-1.66,0-2.58.18-4.17.18h-4.37l-34.31-.54c-1.66,0-2.66-.18-4.19-.18-23.19.13-46.22-.38-69.51-.36-2.76,0-5.62-.36-8.36-.36h-17.41c-3.12,0-5.62-.18-8.72-.18-11.73,0-23.03-.18-34.67-.18-2.94,0-5.47-.18-8.54-.18h-13.06c-1.66,0-2.58-.18-4.17-.18h-6.62c-.82,0-1.74-.23-1.74.54h0l-.05.03Z"/>
    <path class="cls-2" d="m602.81,639.95l-4.65,13.8c-.36,1-.64,1.82-.97,2.86l-1.74,5.39s-.05.1-.05.13-.05.08-.05.13c-.13-.56-.26-.77-.43-1.3-.2-.61-.28-.89-.49-1.43l-5.98-18.41c-.49-1.58.08-1.15-5.83-1.15v27.35h3.66v-21.42l1.84,5.32c.59,1.82,1.25,3.63,1.79,5.34l3.53,10.76h3.66c.89-3.86,5.29-14.75,6.6-19.56.18-.69.15-.89.56-1.35v7.85c0,1.15.18,1.51.18,2.61,0,3.68.18,6.9.18,10.46,1.25,0,3.83.59,3.83-.69v-25.79c0-1.48-4.06-.87-5.57-.87h0l-.05-.03Z"/>
    <path class="cls-2" d="m575.63,550.04v26.48c0,.82,1.07.51,3.14.51.79,0,.54-1.23.51-2.1v-19.35l13.24,20.55c.79,1.28,2.07.87,4.7.87v-26.84c0-.92-1.58-.69-2.61-.69-1.66,0-1.23,1.99-1.23,4.35v16.9s-.05-.05-.26-.28l-6.8-10.63c-1.38-2.25-4.32-7.18-6.16-9.51-.92-1.18-1.69-.84-4.04-.84-.41,0-.51.13-.51.51h0v.08Z"/>
    <path class="cls-2" d="m731.73,666.8c0,1.05,2.3.54,3.83.54v-21.09l12.09,18.56c1.94,2.99.56,2.51,5.68,2.51v-27.35h-3.66v21.45c-.46-.33-1.94-3.09-2.58-4.04l-10.56-16.44c-.79-1.35-1.56-.95-4.81-.95v26.84h0v-.03Z"/>
    <path class="cls-2" d="m787.49,573.38h-6.62v-20.37l3.81-.15c.79.05,1.43.13,2.48.15,1.48,0,3.27.49,4.17,1.05,5.29,3.35,4.17,14.11,1.61,16.95-1.3,1.46-3.25,2.4-5.45,2.4h0v-.03Zm-10.63-23.7c-.05.54-.18.61-.18,1.23v24.75c0,.61.13.66.18,1.23,1.66.38,7.31.18,9.41.18s4.09-.33,5.62-1c1.35-.59,2.05-1.05,3.12-1.94,1.12-.95,2.61-3.45,3.17-5.19,1.18-3.55,1.3-8.23.08-11.73-1.05-3.02-1.69-3.55-3.43-5.11-2.53-2.28-6.14-2.58-9.61-2.58-1.38,0-7.46-.18-8.36.18h0Z"/>
    <path class="cls-2" d="m736.26,609.81c0-3.63-.08-6.42,2.17-9.33.56-.74,1.76-1.61,2.66-2.05,3.63-1.79,7.44-1,10.23,1.76,2.84,2.84,2.56,6.21,2.56,9.97,0,4.19-2.89,9.23-8.36,9.23-1.94,0-4.14-.26-5.52-1.43-2.48-2.12-3.71-4.6-3.71-8.13h0l-.03-.03Zm-4.17-2.28c0,4.81.79,8.26,2.99,10.94,2.91,3.55,6.29,4.4,10.94,4.4,3.6,0,6.54-1.79,8.85-4.22,3.83-4.12,4.47-14.78.08-20.2-2.1-2.58-5.68-4.32-8.92-4.32s-3.96-.08-7.06,1.33c-4.63,2.07-6.88,7.11-6.88,12.09h0v-.03Z"/>
    <path class="cls-2" d="m802.29,609.46c0-3.14.2-6.77,2.3-9.02.87-.92,1.48-1.41,2.68-2.02,3.53-1.76,7.75-.87,10.02,1.61,2.99,3.3,2.58,6.08,2.58,10.3,0,4.47-3.25,9.05-8.03,9.05s-7.54-1.64-8.9-5.91c-.28-.92-.66-2.79-.66-4.04h0v.03Zm-4.01-2.97c0,4.17,0,9.05,3.09,12.25,4.24,4.4,9.97,5.19,15.49,3.02,4.58-1.79,7.21-7.18,7.21-12.48,0-2.76-.05-4.24-.97-6.88-1.61-4.58-5.5-8.28-10.69-8.28-4.5,0-7.23.36-10.58,3.71-2.15,2.12-3.53,5.42-3.53,8.67h-.03Z"/>
    <path class="cls-2" d="m577.53,609.81c0-3.6,0-5.93,2.2-9.13,2.86-4.14,10.4-4.17,13.52.05,2.68,3.63,2.94,11.33-.2,15.72-1.35,1.89-3.6,2.97-6.11,2.97-3.58,0-5.04-.69-6.85-2.56-.79-.82-1.3-1.82-1.71-2.99-.38-1.02-.84-2.61-.84-4.04h0v-.03Zm-4.01-2.79c0,6.44,1.1,11.63,6.57,14.34,8.26,4.14,19.22.23,19.22-12.6,0-4.5-.82-7.62-3.27-10.66-4.29-5.32-14.11-5.16-18.64-.61-2.3,2.3-3.89,6.01-3.89,9.54h0Z"/>
    <path class="cls-2" d="m673.55,562.06h-6.62v-9.05c3.45-.15,12.19-1.25,12.19,3.66,0,3.2-.56,5.39-5.57,5.39h0Zm-10.46-12.37v27.35c2.35,0,3.83.36,3.83-.51v-11.15h8.03c3.27,0,3.76,2.22,3.83,5.06,0,.87.18.97.18,1.92.05,5.27.13,4.7,5.22,4.7,0-2.15-.54-.05-1.15-3.2-.49-2.4-.31-6.19-.87-8-.33-1.1-1.07-2.1-2.33-2.2.23-.92.77-.31,2.22-2.3,2.33-3.25,1.3-8.03-1.66-10.28-2.74-2.07-12.48-1.53-16.41-1.53-.28,0-.66.1-.87.18h0l-.03-.05Z"/>
    <path class="cls-2" d="m557.33,618.68h-5.39v-20.37c3.89-.18,9.13-.95,11.99,2.12,3.22,3.48,3.71,15.34-2.56,17.59-1.1.41-2.48.66-4.04.66h0Zm-9.41,3.32h12.02c6.31,0,10.28-6.9,10.28-12.88,0-2.79,0-4.24-.89-6.95-.54-1.58-1.18-2.68-2.15-3.96-1.84-2.4-5.57-3.37-8.82-3.37h-10.46v27.18h.03Z"/>
    <path class="cls-2" d="m735.39,573.38h-6.8v-20.37c5.34,0,9.82-.87,12.55,2.94,3.25,4.55,2.99,17.44-5.75,17.44h0Zm-10.63,3.66h9.41c12.17,0,14.57-11.58,12.04-19.89-1.71-5.7-6.7-7.64-12.4-7.64h-9.05v27.53h0Z"/>
    <path class="cls-2" d="m703.84,664.7c-2.3,0-4.5-.92-6.06-2.48-3.17-3.17-2.66-6.49-2.66-10.58,0-2.38,1.2-5.09,2.4-6.31,5.55-5.73,15.21-2.1,15.21,7.18,0,4.55-.72,9.15-4.55,11.15-.84.43-3.07,1.05-4.35,1.05h0Zm-12.88-12.37c0,7.46,1.35,11.66,7.26,14.52,3.53,1.71,7.69,1.66,11.27.18,1.18-.49,3.09-1.92,3.81-2.81,3.63-4.52,4.5-11.96,2.33-17.38-.59-1.51-1.35-2.63-2.4-3.68-4.22-4.17-10.05-4.99-15.29-2.66-1.46.64-2.43,1.66-3.53,2.74-1.87,1.84-3.45,5.45-3.45,9.1h0Z"/>
    <path class="cls-2" d="m715.7,618.68h-5.22v-20.37h7.67c3.89,0,6.62,4.37,6.62,8.18,0,6.95-.74,12.19-9.05,12.19h-.03Zm-9.05-23.34v26.66h12.02c5.83,0,10.1-6.37,10.1-12.37,0-5.27-.66-10.51-4.78-12.99-.79-.49-1.35-.82-2.22-1.07-3.45-1.07-10.63-.74-14.6-.74-.41,0-.51.13-.51.51h0Z"/>
    <path class="cls-2" d="m781.91,618.68h-5.22v-20.37c2.58,0,6.65-.59,9.2.36,6.65,2.45,5.75,13.86,3.02,17.26-1.51,1.89-3.71,2.76-7,2.76h0Zm-9.05,3.32h12.02c2.86,0,5.83-2.22,7.36-4.29,3.6-4.88,3.78-14.8-.36-19.43-2.07-2.33-4.45-3.45-8.77-3.45h-10.28v27.18h.03Z"/>
    <path class="cls-2" d="m804.39,549.69c-.43,1.89-.18,22.6-.18,26.31,0,.46.08.49.18.87,1.84.43,16.11.18,19.17.18.28,0,.46-.15.51-.46v-3.2h-15.67v-8.87h14.29v-3.3h-14.29v-8.03c2.71,0,13.73.26,15.52-.18.08-.33.15-.82.18-1.33v-.82c-.05-.74-.23-1.35-.69-1.35-2.4,0-17.97-.23-18.99.18h-.03Z"/>
    <path class="cls-2" d="m638.17,549.69c-.05.54-.18.61-.18,1.23v25.62c0,.38.13.51.51.51,3.09,0,17.49.26,19.35-.18.61-1.28.18-1.92.18-3.48h-15.67c-.41,0-.51-.13-.51-.51v-8.36h14.65v-3.3h-14.11c-.41,0-.51-.13-.51-.54v-7.49h15.34c.82,0,.51-1.07.51-3.14,0-.41-.13-.51-.51-.51-2.4,0-17.97-.23-18.99.18h0l-.05-.03Z"/>
    <path class="cls-2" d="m613.96,595.34v26.13c0,.41.13.54.51.54h19.51c0-3.45,1.48-3.73-4.7-3.66-1.05,0-1.69.18-2.97.18-2.07,0-6.7.2-8.36-.18-.38-1.61-.18-5.29-.18-7.13,0-.87.15-.79.18-1.56h14.47c0-4.24.66-3.48-3.14-3.48h-11.33c-.38-1.64-.18-5.75-.18-7.67h15.34c.82,0,.54-1.07.54-3.14,0-.41-.13-.51-.54-.51h-18.64c-.41,0-.51.13-.51.51h0v-.03Z"/>
    <path class="cls-2" d="m803.87,646.04c0,5.01.31,6.77,7.59,8.62,3.37.84,8.77,1.18,8.77,5.16,0,5.7-12.81,7.9-13.6-1.56h-3.83c.31,13.4,20.27,12.17,21.24,2.25v-1.56c-.08-.72-.23-1.48-.49-2.28-.97-2.84-3.76-3.91-6.54-4.6-2.02-.51-3.99-.95-5.88-1.43-4.04-1.02-5.16-4.47-1.99-6.95,1.89-1.51,6.6-1.48,8.54.26,1.18,1.05,1.82,2.58,1.84,4.24h3.83c0-1.18-.33-2.86-.69-3.66-.59-1.28-.92-1.71-1.87-2.66-3.81-3.81-11.91-3.25-15.44.66-.79.87-1.51,2.15-1.51,3.55h0l.03-.05Z"/>
    <path class="cls-2" d="m637.83,601.45c0,2.63.1,4.24,2.43,5.93,1.38.97,3.07,1.48,4.96,2.02,4.6,1.3,9,.95,9,5.65,0,2.56-3.25,4.35-5.93,4.35-2.28,0-4.27-.28-5.85-1.99-2.12-2.28-1.23-4.45-2.35-4.45h-3.14c0,5.55,3.99,9.77,8.9,9.77,4.58,0,9.02.05,11.45-4.76,1.48-2.97,1.12-6.47-1.12-8.72-3.99-3.99-14.67-2.07-14.67-7.44,0-3.96,6.01-6.16,10.2-3.04,1.15.87,1.84,2.12,1.84,4.09,1.33.1,2.1.41,3.83,0,0-12.35-19.51-10.53-19.51-1.41h-.03Z"/>
    <path class="cls-2" d="m688.71,556.31c0,2.48,0,4.17,2.22,5.8,5.11,3.73,14.16,1.61,14.16,7.62,0,2.79-3.58,4.52-5.93,4.52s-4.06-.1-5.88-1.97c-2.51-2.53-.95-4.5-2.12-4.5h-3.32c0,13.98,21.09,11.73,21.09,2.1,0-8.67-6.83-7.69-12.91-9.56-3.17-.97-3.63-2.05-3.63-4.55,0-2.99,6.65-5.27,10.4-2.05,2.12,1.82,1.05,4.14,2.15,4.14,2.97,0,3.3.31,3.3-.69,0-2.63-1.46-4.96-2.97-6.11-6.16-4.7-16.57-1.53-16.57,5.24h0Z"/>
    <path class="cls-2" d="m547.92,567.63c0,6.98,4.32,10.1,10.97,10.1,2.84,0,5.14-.92,7.13-2.63l.18-.15s.08-.05.1-.08l.43-.43c2.12-2.56,2.61-5.16,2.61-8.72v-15.67c0-.87-1.48-.51-3.83-.51,0,4.14.36,17.56-.77,20.84-1.56,4.58-9.1,4.29-11.48,1.69-.95-1.05-1.51-3.45-1.51-5.45v-17.08h-3.83v18.13h0v-.03Z"/>
    <path class="cls-2" d="m556.97,644.66c.79.59,1.76,3.86,2.17,5.14.33,1.02.59,1.74.89,2.76.49,1.58.92,1.51.92,3.43h-7.85c.1-.41.26-.79.43-1.3l3.4-10.02h.03Zm-11.84,22.65h0c.08-.92.79-2.68,1.1-3.6l8.82-23.78h4.35c.05.64.95,2.84,1.23,3.5l2.53,6.88c.43,1.15.84,2.15,1.23,3.3.82,2.43,1.66,4.52,2.53,6.88.79,2.15,1.84,4.42,2.43,6.83h-4.19c-.13-1.61-2.48-6.44-2.61-8.03h-10.79c-.51,1.05-.95,2.81-1.33,4.06l-1.46,3.96h-3.83,0Z"/>
    <path class="cls-2" d="m633.64,644.48c.36,1.51,2.79,7.87,3.45,9.97.23.72.26.92.56,1.53h-8c.08-.89,3.43-10.66,4.01-11.5h-.03Zm-12.19,22.83h4.01c.33-1.38.92-2.81,1.38-4.04l1.41-3.99h10.63l2.05,5.98c.28.74.56,1.25.74,2.05h4.19l-1.84-5.11c-2.07-5.93-4.83-12.88-7.13-18.99-1.41-3.73-.18-3.25-4.78-3.25-.87,0-1.38,2.2-1.66,3.04-.41,1.18-.84,2.3-1.3,3.43l-5.14,13.86c-.46,1.18-.89,2.33-1.28,3.43-.41,1.23-.95,2.4-1.25,3.63h0l-.03-.03Z"/>
    <path class="cls-2" d="m761.36,554.21c.51,2.17,3.48,9.84,3.83,11.33h-8.03c0-.74,1.53-4.76,1.89-5.78.36-.97.64-1.79,1-2.84.33-1.02.51-2.2,1.28-2.74h0l.03.03Zm-11.86,22.83c3.94,0,3.3.36,3.99-1.76.26-.82.51-1.33.79-2.17l1.51-4.24h10.63c.36,1.56,1.53,4.47,2.12,6.08.2.54.43,1.64.66,2.1h4.17c-.08-.97-4.73-12.99-5.09-13.91l-4.55-12.17c-.66-1.76.1-1.46-4.32-1.46-.69,0-.66.87-.84,1.41-.92,2.89-3.4,8.79-4.58,12.32l-4.88,13.27c-.08.28-.26.51.36.51h0l.03.03Z"/>
    <path class="cls-2" d="m658.21,643.25h15.34c-.13.51-.59.97-.89,1.38l-13.78,17.23c-2.2,2.61-1.74,2.86-1.51,5.47h20.91v-3.48h-16.21l3.02-3.78c.43-.49.66-.82,1.07-1.35l9.28-11.61c3.2-3.86,2.84-3.27,2.84-7.11h-20.04v3.32h0l-.03-.08Z"/>
    <path class="cls-2" d="m778.95,644.66c.08.89,2.38,7.06,2.86,8.46.31.89.61,2.12.97,2.86h-8.18l2.99-8.69c.28-.79.74-2.17,1.38-2.63h-.03Zm-12.37,22.65h3.83c.13-.54.2-.51.41-1l1.2-3.17c1.76-4.86-.79-3.86,11.48-3.86.87,0,1.33,2.43,1.82,3.76.36,1,1.3,3.22,1.33,4.24h4.19c-.36-1.48-.54-2.12-1.1-3.43-1.38-3.27-4.24-11.27-5.68-15.24l-3.14-8.69h-4.35l-4.99,13.68c-.46,1.18-.77,2.15-1.23,3.32-.64,1.66-3.66,9.46-3.73,10.38h-.05Z"/>
    <path class="cls-2" d="m692,599.36c.1,1.38,3.35,9.2,3.83,11.33h-8.03c0-.74,1.61-4.7,1.94-5.73.31-.95.61-1.87.95-2.86.28-.87.72-2.3,1.28-2.74h.03Zm-12.37,22.65h4.17c.05-.74,1.53-4.78,1.94-5.91.23-.61.61-1.41.69-2.12h10.63l1.3,3.94c.36,1.1,1.28,2.94,1.3,4.09h4.35c-.15-.66-.36-1.02-.59-1.69l-3.86-10.25c-1.48-3.63-2.94-8.21-4.5-12.04-1.56-3.89-.18-3.22-4.99-3.22-.69,0-1.1,1.97-1.53,3.17l-5.73,15.36c-.23.66-.38,1.15-.64,1.82-.46,1.2-.84,2.2-1.28,3.43l-1.28,3.43h0Z"/>
    <path class="cls-2" d="m621.45,577.04c4.6,0,3.14.64,4.63-3.2.23-.61.41-1.15.56-1.69.23-.69.41-1.07.66-1.79l2.48-7.11c.79-2.4,1.53-4.6,2.4-7.03l1.89-5.27c.64-1.76.95-1.46-3.2-1.46-.69,0-.56.89-1.1,2.56l-4.76,14.24c-.36,1.05-1.25,4.91-2.15,5.5-.08-.82-5.27-15.72-5.73-16.92l-1.46-4.29c-.54-1.41-.05-1.1-4.14-1.1.03,1.15,1.69,5.83,2.17,7.08.46,1.18.87,2.33,1.3,3.4l4.93,13.88c.26.66.77,3.17,1.53,3.17h0l-.05.03Z"/>
    <path class="cls-2" d="m659.95,595.34c0,1.99-.28,2.97.54,2.97h8.18v23.7h3.83v-23.7h8.36c.31-1.25.18-1.46.18-2.97,0-.41-.13-.51-.51-.51h-20.04c-.41,0-.54.13-.54.51h0Z"/>
    <path class="cls-2" d="m603.68,549.69v24.75c0,2.94-.64,2.61,4.01,2.61v-26.84c0-1.18-3.68-.64-4.01-.51h0Z"/>
    <path class="cls-2" d="m714.32,550.04v26.48c0,.87,1.48.51,3.83.51v-27.53c-2.35,0-3.83-.36-3.83.51h0v.03Z"/>
    <path class="cls-2" d="m720.51,450.9c-.56-.54-1.74-.36-2.71-.36h-48.78v-22.65h55.73c.61-.15.59-.31.72-.49-2.12.26-16.62.08-20.04.08-10.56,0-24.77-.31-35.2.05-1.18.05-1.46-.2-1.48.87-.08,2.99-.15,21.22,0,22.39,2.79.41,51.36.23,51.77.08h0v.03Z"/>
    <path class="cls-2" d="m727.92,496.89c-1.12,0-2.12.18-3.5.18h-55.4v-27.53h13.06c4.5,0,8.44-.18,12.88-.18h16.21c1.33,0,1.89.18,3.12.18h4.88c.92,0,1.05.15,1.38-.38-8.69.13-17.28,0-25.97,0-.61,0-25.1-.41-25.72.28-.15.2-.51,26.25-.13,27.84,4.58.41,10.2.2,14.88.23l41.47-.08c1.07.05,2.22.26,2.81-.56h0l.03.03Z"/>
  </g>
</svg>