<?xml version="1.0" encoding="UTF-8"?>
<svg id="Camada_1" data-name="Camada 1" xmlns="http://www.w3.org/2000/svg" viewBox="0 0 761.68 391.07">
  <defs>
    <style>
      .cls-1 {
        fill: #004595;
      }

      .cls-2, .cls-3 {
        fill: #1c2240;
      }

      .cls-3 {
        fill-rule: evenodd;
      }
    </style>
  </defs>
  <g>
    <path class="cls-2" d="m296.34,90.68c-4.44-9.24-50.35-45.58-111.49-44.01-26.17.67-41.31,5.36-60.55,14.02-21.56,9.7-45.28,28.21-53.91,41.69-6.75,10.54,1.08,20.48,13.3,23.72,5.03,1.08,12.41-.19,21.56-2.16,17.37-3.73,30.09-9.22,34.68-11.5,15.67-7.79,49.39-24.29,72.77-29.47,47.2-10.45,85.98,12.6,83.64,7.72Z"/>
    <path class="cls-1" d="m176.6,95.36c4.64,2.86,40.96,4.41,78.24,38.35,5.73,5.22,8.73,9.75,16.12,11.41,7.71,1.73,16.21,4.38,27.11-4.12,10.68-8.33,11.11-22.27,11.14-24.08.11-7.18-2.36-12.74-3.59-15.45,0,0-3.26-7.15-9.34-12.94-16.23-15.44-58.44-10-65.76-8.98-12.92,1.8-31.99,5.82-53.91,15.81Z"/>
    <path class="cls-1" d="m104.02,260.5c-.69-18.1.15-32.76,1.08-42.99,1.13-12.39,3.22-27.48,1.08-47.8-1.1-10.46-2.52-14.6-4.67-18.33-5.3-9.17-16.97-19.04-31.27-17.97-12.82.96-20.88,10.2-22.64,12.22-.68.78-4.23,4.92-6.47,10.78-7.32,19.16,5.13,41.49,11.86,53.55,2.12,3.8,10.91,19.08,28.03,34.14,8.61,7.57,16.78,12.85,23,16.4Z"/>
    <path class="cls-2" d="m42.14,153.92c-.46-.04-1.14,2.91-2.5,8.82-.99,4.32-1.72,7.99-2.22,10.72,0,0-1.82,10.93-1.89,22.46-.23,37.82,15.63,68.46,15.63,68.46,1.86,3.6,10.37,21.22,28.41,38.52,6.89,6.61,12.42,12.01,19.95,17.52,17.16,12.57,30.38,19.96,48.13,23.2,6.12,1.12,12.44,4.13,18.33,1.08,5.26-2.73,7.43-8.21,7.88-9.43,2.16-5.87.57-11.04-.13-13.21-.87-2.69-2.25-5.18-8.56-12.26-6.61-7.42-11.12-11.59-11.12-11.59-10.1-9.34-22.92-20.18-32.41-27.22-1.42-1.05-6.46-4.77-12.94-10.11-.89-.73-1.42-1.31-2.43-2.02-2.41-1.7-3.66-1.79-4.27-2.29-5.2-4.26-15.79-10.07-18.51-12.94-11.73-12.35-11.87-11.32-19.59-21.11-3.94-5-6.27-9.17-8.98-14.02-3.92-7.01-8.3-14.84-10.78-24.44-4.2-16.28-.96-30.05-2.02-30.14Z"/>
    <path class="cls-1" d="m232.6,346.72c3.82-1.13,8.01-3.24,18.87-13.75,6.51-6.3,9.77-9.46,12.53-13.21,4.84-6.56,7.16-12.14,9.97-19,1.75-4.27,1.75-4.87,9.57-34.36,0,0,1.46-5.52,2.7-16.17.64-5.58.7-8.66-.13-8.89-.55-.16-1.31.97-1.48,1.21-3.95,5.57-32.89,23.74-50.18,31.8-6.74,3.14-17.32,4.08-31.76,16.71-5.13,4.49-11.12,10.34-13.07,19.27-.22,1.01-1.03,4.97-.4,10.11.28,2.34,1.38,10.39,7.95,17.52,5.68,6.16,12.26,8.15,14.82,8.89,5.75,1.66,10.64,1.36,12.8,1.21,4.17-.29,7.23-1.18,7.82-1.35Z"/>
    <path class="cls-2" d="m230.72,347.26c-.33-.67,11.71-4.96,24.17-17.7,2.96-3.03,7.73-7.97,12.04-15.63,4.17-7.4,6.37-14.61,9.07-23.45.93-3.04,1.5-5.15,2.43-8.62,2.44-9.1,4.67-17.53,5.93-27.4.62-4.84.25-4.11.99-12.4,1.28-14.34,2.57-18.61,4.67-35.22,1.88-14.86,1.06-13.12,2.52-22.19.92-5.72,2.84-16.3,8.27-28.12,2.73-5.94,4.81-8.84,8-11.05,1.32-.91,6.63-4.46,13.57-3.23,5.47.97,8.79,4.34,9.7,5.3,2.9,3.04,3.96,6.33,4.85,9.34,3.82,13.02,5.03,22.91,5.03,22.91.87,7.14,1.72,14.1,1.62,23.72-.14,13.22-2,23.22-2.61,26.32-2.93,14.89-7.61,25.56-10.51,32.07-3.21,7.19-8.42,18.7-18.42,31.53-2.12,2.72-10.75,13.59-25.96,25.43-27.21,21.17-54.86,29.39-55.34,28.39Z"/>
    <g>
      <path class="cls-3" d="m674.85,88.1h.37c.09,1.09,3.19,9.87,3.85,12.06,2.84,9.41,6.85,21.14,9.93,30.32.43,1.28,1.76,5.15,1.76,6.29h-31.63l10.78-33.38c.21-.62.32-.93.51-1.55l4.43-13.73h0Zm-128.72-24.33h76.96c2.89.08,2.17.62,2.17,3.55,0,1.8.18,15.56-.11,16.35-.17.45-.11.23-.27.35-2.28.28-17.84.08-21.52.08-11.34-.02-26.6-.32-37.81.06-1.27.04-1.57-.21-1.6.93-.09,3.2-.18,22.79.02,24.06,2.99.44,55.16.26,55.59.09.26.21.21.09.37.46.12.29.06.15.1.48l-.24,18.3c-.08.45.01.17-.15.39-9.35.13-18.55.03-27.89.01-.67,0-26.96-.43-27.62.3-.16.23-.55,28.2-.14,29.91,4.92.43,10.94.23,15.97.24l44.52-.07c1.16.06,2.38.29,3.02-.61-.05-1.38.76-2.77,1.13-3.91,2.51-7.68,6.27-17.69,9.11-25.32l21.35-60.07c.3-.91,1.36-4.87,2.06-5.23.88-.47,7.86-.18,9.56-.18s2.96-.17,4.5-.18h.59c1.55,0,3.09,0,4.64,0h7.1c1.4.2,1.51.88,2.31,2.94l14.94,41.58c.8,2.41,1.73,4.87,2.62,7.3l5.19,14.45c.41,1.23.89,2.39,1.32,3.56l16.86,46.95h-25.26c-1.02-2.13-4.7-14.39-5.87-17.89l-1.5-4.5c-.2-.55-.38-.89-.5-1.38h-45.1l-1.01,2.92c-.35,1.14-.58,1.9-.94,2.99l-5.54,17.85h-104.99v-111.36c0-6.34-.44-5.02,1.79-5.32.33-.05,1.85-.08,4.24-.11h0Z"/>
      <path class="cls-3" d="m434.93,143.68c0,6.03,1.98,13.34,4.49,18.34,2.73,5.44,5.49,9.25,10.22,12.81,5.8,4.37,12.62,6.87,20.2,8.23,1.62.29,3.46.62,5.14.67,1.1.03,1.43.2,2.61.19,1.2,0,1.91.05,2.84.16,1.73.19,2.47-.04,4.08-.19l1.13.03c7.7,0,17.93-2.7,24.34-6.54,2.39-1.43,6.65-4.85,8.33-7.01,4.98-6.41,6.37-8.63,8.62-17.2.62-2.35,1.37-6.33,1.37-9.11V63.77h-24.14v75.61c0,8.4-2.89,17.42-10.79,21.21-5.82,2.8-17.21,2.62-22.91.13-9.69-4.25-11.4-14.36-11.4-25.84V63.77h-24.14v79.92h0Z"/>
      <path class="cls-3" d="m730.81,355.92v-5.62h-27.89c-3.25,0-5.88.19-9.17.19h-18.53l-18.34.38c-6.17.01-12.35,0-18.53,0s-12.28.18-18.53.18h-18.71c-6.37,0-12.14.18-18.53.18-24.92,0-49.12.56-74.11.56-3.22,0-5.78.18-8.98.18h-28.07c-6.07,0-12.28.38-18.34.38h-18.71v.75l6.74.18c.96.03,1.15.2,2.23.2h23.4c1.75,0,2.74.18,4.49.18,12.59-.03,24.84.19,37.24.19,3.29,0,6.04.19,9.18.19,15.4,0,31.13.37,46.41.37,3.3,0,5.95-.18,9.17-.18,5.1,0,4.42.13,8.98.37h6.93c1.04,0,1.2.18,2.23.2,7.3.09,22.54-.45,27.92.15,1.66.19,15.71.03,18.68.03,3.19,0,5.87.18,9.17.18l83.65.75h0Z"/>
      <path class="cls-3" d="m434.37,199.08v5.05c4.67,0,20.54.23,23.38,0,6.29-.52,13.43-.09,20.04-.17,1.03-.01,1.18-.18,2.23-.2h27.89c3.6.01,6.6-.18,10.1-.18,13.11,0,27.12-.37,40.24-.37h20.21c6.91,0,13.23-.38,20.21-.38,5.72,0,10.82.2,16.48.2,1.26,0,2.6-.28,3.74-.37h12.71c22.27-.01,44.47-.38,66.63-.38,2.96,0,5.26-.19,8.23-.19l23.03.02c1.15.01,1.27.17,1.29-.95-19.91,0-40.27-.53-60.26-.56-1.77,0-2.78.19-4.49.19-1.56,0-3.12,0-4.68,0l-36.86-.56c-1.78,0-2.84-.19-4.5-.19-24.91.13-49.64-.4-74.67-.38-2.98.01-6.05-.38-8.98-.37h-18.71c-3.35,0-6.03-.18-9.36-.18-12.62,0-24.75-.18-37.24-.18-3.16,0-5.88-.19-9.17-.19h-14.04c-1.77,0-2.78-.19-4.49-.19h-7.12c-.87-.01-1.87-.25-1.87.56h0Z"/>
      <path class="cls-3" d="m493.14,312.31l-5,14.84c-.37,1.07-.68,1.95-1.06,3.06l-1.87,5.8s-.04.1-.05.13c-.01.03-.04.09-.06.12-.14-.6-.28-.83-.47-1.4-.21-.65-.3-.95-.51-1.55l-6.43-19.78c-.53-1.71.08-1.24-6.25-1.24v29.39h3.93v-23.02l1.96,5.71c.64,1.94,1.35,3.91,1.92,5.75l3.79,11.56h3.92c.97-4.16,5.68-15.86,7.08-21,.2-.74.17-.96.6-1.46v8.43c-.01,1.23.19,1.61.19,2.8,0,3.96.18,7.42.18,11.24,1.35,0,4.12.64,4.12-.75v-27.7c0-1.6-4.36-.94-5.99-.94h0Z"/>
      <path class="cls-3" d="m463.95,215.74v28.45c0,.87,1.14.56,3.37.56.85,0,.57-1.32.56-2.24v-20.78l14.23,22.09c.85,1.37,2.23.94,5.05.94v-28.82c0-.99-1.72-.75-2.81-.75-1.8,0-1.31,2.13-1.31,4.68v18.15c-.12-.14-.06-.04-.26-.3l-7.31-11.41c-1.48-2.42-4.65-7.72-6.62-10.22-.99-1.25-1.82-.9-4.34-.9-.43,0-.55.13-.55.56h0Z"/>
      <path class="cls-3" d="m631.62,341.14c0,1.11,2.48.56,4.12.56v-22.65l12.99,19.95c2.1,3.21.62,2.7,6.1,2.7v-29.39h-3.93v23.03c-.5-.36-2.08-3.33-2.77-4.34l-11.34-17.67c-.86-1.46-1.67-1.01-5.17-1.01v28.83h0Z"/>
      <path class="cls-3" d="m691.51,240.82h-7.12v-21.89l4.09-.17c.84.07,1.53.14,2.66.16,1.6.01,3.51.52,4.48,1.14,5.68,3.6,4.47,15.16,1.74,18.19-1.41,1.56-3.48,2.57-5.85,2.57h0Zm-11.42-25.45c-.05.58-.19.66-.19,1.31v26.58c0,.65.14.72.19,1.31,1.8.42,7.85.18,10.1.18s4.4-.37,6.05-1.06c1.46-.62,2.19-1.12,3.34-2.08,1.21-1.02,2.8-3.7,3.41-5.57,1.25-3.81,1.4-8.84.09-12.59-1.13-3.23-1.81-3.83-3.68-5.5-2.71-2.44-6.59-2.76-10.34-2.76-1.48,0-8.02-.18-8.98.19h0Z"/>
      <path class="cls-3" d="m636.49,279.94c0-3.9-.09-6.9,2.32-10.03.62-.8,1.89-1.73,2.85-2.21,3.91-1.91,8-1.07,10.98,1.89,3.05,3.04,2.75,6.68,2.75,10.72,0,4.5-3.1,9.92-8.98,9.92-2.1,0-4.46-.28-5.94-1.55-2.66-2.29-3.98-4.95-3.98-8.74h0Zm-4.49-2.43c0,5.16.84,8.86,3.22,11.74,3.14,3.81,6.75,4.73,11.76,4.73,3.86,0,7.04-1.91,9.49-4.54,4.12-4.41,4.82-15.87.08-21.69-2.25-2.78-6.09-4.65-9.57-4.65s-4.25-.08-7.57,1.41c-4.98,2.23-7.4,7.64-7.4,13h0Z"/>
      <path class="cls-3" d="m707.42,279.56c0-3.37.22-7.28,2.48-9.69.92-.99,1.59-1.52,2.89-2.17,3.78-1.88,8.32-.94,10.76,1.73,3.22,3.54,2.78,6.53,2.78,11.07,0,4.81-3.49,9.73-8.61,9.73s-8.11-1.76-9.57-6.33c-.31-.99-.72-3.01-.72-4.33h0Zm-4.3-3.18c0,4.48,0,9.72,3.32,13.15,4.56,4.72,10.72,5.57,16.63,3.24,4.9-1.93,7.75-7.72,7.75-13.4,0-2.96-.06-4.55-1.05-7.37-1.73-4.91-5.91-8.9-11.49-8.9-4.83,0-7.76.39-11.37,3.97-2.29,2.27-3.79,5.81-3.79,9.31h0Z"/>
      <path class="cls-3" d="m466,279.94c0-3.86-.02-6.37,2.36-9.81,3.07-4.45,11.17-4.48,14.52.05,2.89,3.91,3.16,12.15-.22,16.88-1.46,2.03-3.87,3.17-6.55,3.17-3.85,0-5.4-.75-7.35-2.76-.85-.88-1.39-1.94-1.85-3.2-.41-1.09-.91-2.81-.91-4.33h0Zm-4.3-3c0,6.92,1.18,12.48,7.05,15.42,8.86,4.44,20.64.26,20.64-13.54,0-4.84-.88-8.18-3.53-11.45-4.62-5.72-15.16-5.55-20.01-.67-2.46,2.48-4.16,6.46-4.16,10.24h0Z"/>
      <path class="cls-3" d="m569.12,228.66h-7.11v-9.73c3.7-.16,13.1-1.34,13.1,3.93,0,3.44-.59,5.8-5.99,5.8h0Zm-11.23-13.29v29.38c2.52,0,4.12.38,4.12-.56v-11.98h8.61c3.51,0,4.04,2.4,4.11,5.43.02.94.19,1.03.2,2.05.07,5.66.14,5.06,5.61,5.06,0-2.29-.56-.06-1.23-3.45-.52-2.58-.33-6.65-.94-8.61-.37-1.19-1.16-2.24-2.51-2.36.26-.99.82-.32,2.38-2.48,2.5-3.48,1.4-8.62-1.79-11.03-2.95-2.23-13.4-1.66-17.62-1.66-.29,0-.71.1-.94.19h0Z"/>
      <path class="cls-3" d="m444.29,289.48h-5.8v-21.89c4.17-.2,9.79-1.02,12.87,2.28,3.46,3.74,3.97,16.49-2.74,18.89-1.19.43-2.66.72-4.33.72h0Zm-10.11,3.56h12.91c6.79,0,11.04-7.4,11.04-13.85,0-2.99.01-4.57-.96-7.46-.58-1.7-1.26-2.9-2.3-4.25-1.98-2.57-5.99-3.63-9.48-3.63h-11.23v29.2h0Z"/>
      <path class="cls-3" d="m635.55,240.82h-7.3v-21.89c5.73,0,10.54-.93,13.48,3.17,3.49,4.88,3.21,18.72-6.18,18.72h0Zm-11.42,3.93h10.1c13.07,0,15.64-12.45,12.94-21.36-1.85-6.12-7.19-8.21-13.31-8.21h-9.73v29.57h0Z"/>
      <path class="cls-3" d="m601.68,338.89c-2.48,0-4.83-.99-6.5-2.67-3.4-3.41-2.85-6.99-2.85-11.37,0-2.55,1.28-5.46,2.57-6.79,5.97-6.15,16.33-2.25,16.33,7.72,0,4.9-.78,9.84-4.88,11.97-.9.47-3.3,1.13-4.67,1.13h0Zm-13.85-13.29c0,8.01,1.45,12.52,7.79,15.6,3.8,1.84,8.28,1.77,12.1.18,1.25-.52,3.32-2.07,4.09-3.02,3.9-4.85,4.85-12.84,2.51-18.67-.64-1.62-1.46-2.83-2.59-3.96-4.53-4.49-10.79-5.35-16.42-2.85-1.56.69-2.62,1.78-3.79,2.94-2,1.98-3.7,5.84-3.7,9.78h0Z"/>
      <path class="cls-3" d="m614.4,289.48h-5.61v-21.89h8.23c4.16,0,7.11,4.68,7.11,8.79,0,7.46-.8,13.1-9.73,13.1h0Zm-9.73-25.08v28.64h12.91c6.25,0,10.85-6.82,10.85-13.29,0-5.67-.71-11.28-5.13-13.96-.86-.52-1.45-.87-2.39-1.16-3.72-1.14-11.42-.79-15.69-.79-.43,0-.56.13-.56.56h0Z"/>
      <path class="cls-3" d="m685.52,289.48h-5.61v-21.89c2.78,0,7.13-.62,9.9.39,7.13,2.63,6.17,14.87,3.24,18.54-1.61,2.02-3.97,2.96-7.52,2.96h0Zm-9.73,3.56h12.91c3.07,0,6.27-2.38,7.91-4.62,3.88-5.25,4.05-15.91-.38-20.88-2.22-2.49-4.78-3.7-9.4-3.7h-11.04v29.2h0Z"/>
      <path class="cls-3" d="m709.66,215.37c-.47,2.03-.19,24.28-.19,28.26,0,.5.09.52.19.94,1.99.46,17.3.18,20.59.18.31,0,.48-.17.56-.5v-3.43h-16.84v-9.54h15.34v-3.55h-15.34v-8.61c2.9,0,14.74.26,16.66-.18.08-.36.16-.89.18-1.43v-.87c-.05-.79-.25-1.45-.75-1.45-2.58,0-19.29-.24-20.4.19h0Z"/>
      <path class="cls-3" d="m531.13,215.37c-.05.58-.19.66-.19,1.31v27.52c0,.43.13.56.56.56,3.31,0,18.79.27,20.78-.18.65-1.37.19-2.05.19-3.75h-16.85c-.43,0-.56-.12-.56-.56v-8.98h15.72v-3.55h-15.16c-.43,0-.56-.13-.56-.56v-8.05h16.47c.87,0,.56-1.15.56-3.37,0-.43-.13-.56-.56-.56-2.59,0-19.29-.24-20.4.19h0Z"/>
      <path class="cls-3" d="m505.11,264.4v28.07c0,.43.13.56.56.56h20.96c0-3.71,1.58-4.02-5.06-3.94-1.14.01-1.81.2-3.17.19-2.23,0-7.2.23-8.98-.18-.4-1.74-.19-5.68-.19-7.67,0-.94.17-.84.19-1.69h15.53c0-4.56.73-3.74-3.37-3.74h-12.16c-.41-1.76-.19-6.17-.19-8.24h16.47c.88,0,.56-1.14.56-3.37,0-.43-.13-.56-.56-.56h-20.02c-.43,0-.56.13-.56.56h0Z"/>
      <path class="cls-3" d="m709.1,318.86c0,5.37.34,7.28,8.16,9.25,3.63.92,9.43,1.26,9.43,5.54,0,6.12-13.75,8.48-14.6-1.68h-4.12c.32,14.4,21.78,13.08,22.83,2.41v-1.68c-.07-.78-.24-1.59-.53-2.45-1.03-3.05-4.04-4.21-7.03-4.95-2.18-.55-4.3-1.02-6.33-1.53-4.34-1.09-5.54-4.8-2.16-7.48,2.04-1.62,7.07-1.6,9.18.26,1.27,1.12,1.96,2.76,1.99,4.56h4.12c0-1.27-.37-3.09-.74-3.93-.63-1.38-.99-1.84-2.02-2.86-4.09-4.1-12.81-3.49-16.59.72-.84.94-1.61,2.29-1.61,3.82h0Z"/>
      <path class="cls-3" d="m530.75,270.95c0,2.82.1,4.57,2.61,6.37,1.47,1.05,3.3,1.58,5.33,2.16,4.94,1.41,9.66,1.02,9.66,6.07,0,2.76-3.49,4.68-6.36,4.68-2.45,0-4.57-.31-6.28-2.14-2.28-2.46-1.31-4.78-2.52-4.78h-3.37c0,5.97,4.28,10.48,9.55,10.48,4.92,0,9.69.05,12.29-5.11,1.6-3.18,1.2-6.96-1.2-9.35-4.29-4.3-15.77-2.23-15.77-8,0-4.26,6.44-6.63,10.94-3.27,1.25.93,1.98,2.28,1.98,4.39,1.43.12,2.26.43,4.12,0,0-13.26-20.96-11.3-20.96-1.5h0Z"/>
      <path class="cls-3" d="m585.39,222.48c0,2.66-.02,4.48,2.38,6.24,5.48,4.01,15.22,1.74,15.22,8.18,0,2.99-3.84,4.87-6.37,4.87s-4.36-.11-6.32-2.1c-2.69-2.73-1-4.83-2.28-4.83h-3.56c0,15.01,22.65,12.6,22.65,2.25,0-9.31-7.34-8.26-13.87-10.27-3.41-1.05-3.91-2.21-3.91-4.89,0-3.22,7.14-5.65,11.18-2.2,2.28,1.95,1.12,4.44,2.29,4.44,3.2,0,3.56.32,3.56-.75,0-2.84-1.56-5.32-3.18-6.55-6.63-5.06-17.79-1.64-17.79,5.62h0Z"/>
      <path class="cls-3" d="m434.19,234.64c0,7.49,4.63,10.85,11.79,10.85,3.06,0,5.51-1,7.66-2.82l.2-.17s.07-.06.1-.09l.46-.48c2.27-2.76,2.81-5.53,2.81-9.36v-16.85c0-.93-1.6-.56-4.12-.56,0,4.45.37,18.87-.84,22.38-1.68,4.93-9.78,4.6-12.32,1.82-1.02-1.12-1.63-3.7-1.63-5.85v-18.35h-4.12v19.47h0Z"/>
      <path class="cls-3" d="m443.91,317.37c.85.63,1.9,4.16,2.34,5.53.36,1.09.63,1.87.97,2.96.52,1.69,1,1.63,1,3.68h-8.42c.1-.45.27-.85.46-1.41l3.65-10.76h0Zm-12.73,24.34h0c.09-.98.86-2.88,1.19-3.86l9.48-25.53h4.68c.05.68,1.03,3.04,1.31,3.75l2.73,7.38c.48,1.25.9,2.3,1.32,3.54.88,2.6,1.79,4.87,2.72,7.39.85,2.32,1.99,4.74,2.6,7.33h-4.5c-.14-1.72-2.66-6.92-2.81-8.61h-11.6c-.54,1.11-1.01,3.02-1.43,4.37l-1.57,4.24h-4.12Z"/>
      <path class="cls-3" d="m526.26,317.18c.38,1.63,3,8.46,3.7,10.71.24.78.26,1,.6,1.64h-8.61c.08-.96,3.67-11.44,4.3-12.35h0Zm-13.1,24.52h4.3c.35-1.47.98-3.03,1.47-4.34l1.52-4.28h11.42l2.19,6.43c.31.8.61,1.35.8,2.19h4.5l-1.99-5.5c-2.22-6.37-5.2-13.84-7.66-20.41-1.51-4.01-.19-3.48-5.13-3.48-.93,0-1.49,2.37-1.8,3.26-.45,1.27-.91,2.48-1.39,3.67l-5.53,14.87c-.49,1.28-.97,2.49-1.37,3.69-.44,1.32-1.02,2.58-1.34,3.91h0Z"/>
      <path class="cls-3" d="m663.44,220.23c.55,2.33,3.74,10.58,4.12,12.17h-8.61c.02-.8,1.65-5.12,2.04-6.2.37-1.04.69-1.91,1.07-3.04.37-1.09.55-2.37,1.38-2.93h0Zm-12.73,24.52c4.23,0,3.54.39,4.28-1.89.29-.88.54-1.43.85-2.34l1.61-4.56h11.42c.39,1.69,1.65,4.79,2.27,6.53.21.58.48,1.76.73,2.26h4.49c-.08-1.05-5.08-13.95-5.45-14.95l-4.89-13.07c-.72-1.9.1-1.55-4.63-1.55-.73,0-.73.93-.91,1.52-.99,3.11-3.64,9.43-4.91,13.24l-5.24,14.26c-.07.3-.27.55.4.55h0Z"/>
      <path class="cls-3" d="m552.65,315.87h16.47c-.15.54-.63,1.03-.97,1.47l-14.81,18.5c-2.37,2.81-1.85,3.07-1.62,5.86h22.45v-3.75h-17.4l3.23-4.07c.47-.53.71-.88,1.15-1.46l9.98-12.48c3.42-4.16,3.04-3.5,3.04-7.64h-21.52v3.56h0Z"/>
      <path class="cls-3" d="m682.34,317.37c.08.97,2.55,7.58,3.06,9.1.33.97.67,2.27,1.05,3.07h-8.79l3.21-9.33c.31-.84.79-2.34,1.47-2.84h0Zm-13.29,24.34h4.11c.13-.56.21-.56.43-1.07l1.29-3.4c1.9-5.22-.86-4.14,12.33-4.14.94,0,1.42,2.61,1.94,4.05.38,1.07,1.4,3.46,1.43,4.57h4.49c-.37-1.61-.59-2.29-1.18-3.69-1.48-3.51-4.56-12.12-6.1-16.36l-3.39-9.34h-4.68l-5.35,14.68c-.49,1.26-.83,2.3-1.31,3.56-.7,1.78-3.93,10.16-4.01,11.15h0Z"/>
      <path class="cls-3" d="m588.95,268.7c.12,1.49,3.59,9.89,4.12,12.17h-8.61c.01-.79,1.72-5.05,2.08-6.15.34-1.01.66-1.99,1.03-3.09.3-.93.76-2.48,1.38-2.93h0Zm-13.29,24.34h4.49c.07-.8,1.64-5.12,2.08-6.34.24-.65.67-1.5.73-2.27h11.41l1.4,4.22c.39,1.18,1.38,3.17,1.41,4.39h4.68c-.17-.72-.37-1.09-.63-1.8l-4.16-11c-1.59-3.91-3.17-8.82-4.84-12.94-1.68-4.16-.19-3.45-5.35-3.45-.74,0-1.18,2.11-1.65,3.4l-6.14,16.51c-.26.71-.43,1.23-.68,1.94-.48,1.3-.91,2.36-1.38,3.67l-1.38,3.68h0Z"/>
      <path class="cls-3" d="m513.16,244.75c4.94,0,3.38.67,4.98-3.45.26-.65.43-1.25.62-1.82.24-.74.45-1.16.7-1.91l2.67-7.63c.86-2.58,1.66-4.94,2.57-7.54l2.02-5.66c.69-1.9,1-1.57-3.45-1.57-.73,0-.59.96-1.19,2.74l-5.1,15.3c-.38,1.13-1.35,5.27-2.32,5.92-.07-.87-5.67-16.89-6.15-18.18l-1.57-4.6c-.58-1.52-.05-1.17-4.45-1.17.03,1.25,1.81,6.25,2.33,7.59.48,1.27.94,2.49,1.39,3.66l5.29,14.92c.26.73.83,3.39,1.66,3.39h0Z"/>
      <path class="cls-3" d="m554.52,264.4c0,2.13-.3,3.19.56,3.19h8.79v25.45h4.12v-25.45h8.98c.32-1.35.19-1.57.19-3.19,0-.43-.12-.56-.56-.56h-21.52c-.43,0-.56.13-.56.56h0Z"/>
      <path class="cls-3" d="m494.07,215.37v26.58c0,3.16-.69,2.8,4.3,2.8v-28.82c0-1.28-3.96-.69-4.3-.56h0Z"/>
      <path class="cls-3" d="m612.91,215.74v28.45c0,.94,1.6.56,4.12.56v-29.57c-2.52,0-4.12-.37-4.12.56h0Z"/>
      <path class="cls-3" d="m619.56,109.24c-.6-.58-1.86-.38-2.92-.38h-52.4s0-24.33,0-24.33l59.85-.02c.65-.15.64-.32.78-.49-2.28.28-17.84.08-21.52.08-11.34-.02-26.6-.32-37.81.06-1.27.04-1.57-.21-1.6.93-.09,3.2-.18,22.79.02,24.06,2.99.44,55.16.26,55.59.09h0Z"/>
      <path class="cls-3" d="m627.52,158.66c-1.21,0-2.28.18-3.76.18h-59.52v-29.57h14.04c4.85,0,9.06-.19,13.85-.19h17.41c1.42,0,2.03.2,3.36.2h5.26c1,.01,1.12.18,1.49-.41-9.35.13-18.55.03-27.89.01-.67,0-26.96-.43-27.62.3-.16.23-.55,28.2-.14,29.91,4.92.43,10.94.23,15.97.24l44.52-.07c1.16.06,2.38.29,3.02-.61h0Z"/>
    </g>
  </g>
  <rect class="cls-2" x="369.23" y="51.57" width="17.2" height="299.41"/>
</svg>