<?xml version="1.0" encoding="UTF-8"?>
<svg id="Camada_1" data-name="Camada 1" xmlns="http://www.w3.org/2000/svg" viewBox="0 0 444.37 433.1">
  <defs>
    <style>
      .cls-1 {
        fill: #004595;
      }

      .cls-2, .cls-3 {
        fill: #1c2240;
      }

      .cls-3 {
        fill-rule: evenodd;
      }
    </style>
  </defs>
  <path class="cls-2" d="m336.32,109.03c-4.44-9.24-50.35-45.58-111.49-44.01-26.17.67-41.31,5.36-60.55,14.02-21.56,9.7-45.28,28.21-53.91,41.69-6.75,10.54,1.08,20.48,13.3,23.72,5.03,1.08,12.41-.19,21.56-2.16,17.37-3.73,30.09-9.22,34.68-11.5,15.67-7.79,49.39-24.29,72.77-29.47,47.2-10.45,85.98,12.6,83.64,7.72Z"/>
  <path class="cls-1" d="m216.57,113.71c4.64,2.86,40.96,4.41,78.24,38.35,5.73,5.22,8.73,9.75,16.12,11.41,7.71,1.73,16.21,4.38,27.11-4.12,10.68-8.33,11.11-22.27,11.14-24.08.11-7.18-2.36-12.74-3.59-15.45,0,0-3.26-7.15-9.34-12.94-16.23-15.44-58.44-10-65.76-8.98-12.92,1.8-31.99,5.82-53.91,15.81Z"/>
  <path class="cls-1" d="m143.99,278.84c-.69-18.1.15-32.76,1.08-42.99,1.13-12.39,3.22-27.48,1.08-47.8-1.1-10.46-2.52-14.6-4.67-18.33-5.3-9.17-16.97-19.04-31.27-17.97-12.82.96-20.88,10.2-22.64,12.22-.68.78-4.23,4.92-6.47,10.78-7.32,19.16,5.13,41.49,11.86,53.55,2.12,3.8,10.91,19.08,28.03,34.14,8.61,7.57,16.78,12.85,23,16.4Z"/>
  <path class="cls-2" d="m82.11,172.27c-.46-.04-1.14,2.91-2.5,8.82-.99,4.32-1.72,7.99-2.22,10.72,0,0-1.82,10.93-1.89,22.46-.23,37.82,15.63,68.46,15.63,68.46,1.86,3.6,10.37,21.22,28.41,38.52,6.89,6.61,12.42,12.01,19.95,17.52,17.16,12.57,30.38,19.96,48.13,23.2,6.12,1.12,12.44,4.13,18.33,1.08,5.26-2.73,7.43-8.21,7.88-9.43,2.16-5.87.57-11.04-.13-13.21-.87-2.69-2.25-5.18-8.56-12.26-6.61-7.42-11.12-11.59-11.12-11.59-10.1-9.34-22.92-20.18-32.41-27.22-1.42-1.05-6.46-4.77-12.94-10.11-.89-.73-1.42-1.31-2.43-2.02-2.41-1.7-3.66-1.79-4.27-2.29-5.2-4.26-15.79-10.07-18.51-12.94-11.73-12.35-11.87-11.32-19.59-21.11-3.94-5-6.27-9.17-8.98-14.02-3.92-7.01-8.3-14.84-10.78-24.44-4.2-16.28-.96-30.05-2.02-30.14Z"/>
  <path class="cls-1" d="m272.58,365.07c3.82-1.13,8.01-3.24,18.87-13.75,6.51-6.3,9.77-9.46,12.53-13.21,4.84-6.56,7.16-12.14,9.97-19,1.75-4.27,1.75-4.87,9.57-34.36,0,0,1.46-5.52,2.7-16.17.64-5.58.7-8.66-.13-8.89-.55-.16-1.31.97-1.48,1.21-3.95,5.57-32.89,23.74-50.18,31.8-6.74,3.14-17.32,4.08-31.76,16.71-5.13,4.49-11.12,10.34-13.07,19.27-.22,1.01-1.03,4.97-.4,10.11.28,2.34,1.38,10.39,7.95,17.52,5.68,6.16,12.26,8.15,14.82,8.89,5.75,1.66,10.64,1.36,12.8,1.21,4.17-.29,7.23-1.18,7.82-1.35Z"/>
  <path class="cls-2" d="m270.69,365.61c-.33-.67,11.71-4.96,24.17-17.7,2.96-3.03,7.73-7.97,12.04-15.63,4.17-7.4,6.37-14.61,9.07-23.45.93-3.04,1.5-5.15,2.43-8.62,2.44-9.1,4.67-17.53,5.93-27.4.62-4.84.25-4.11.99-12.4,1.28-14.34,2.57-18.61,4.67-35.22,1.88-14.86,1.06-13.12,2.52-22.19.92-5.72,2.84-16.3,8.27-28.12,2.73-5.94,4.81-8.84,8-11.05,1.32-.91,6.63-4.46,13.57-3.23,5.47.97,8.79,4.34,9.7,5.3,2.9,3.04,3.96,6.33,4.85,9.34,3.82,13.02,5.03,22.91,5.03,22.91.87,7.14,1.72,14.1,1.62,23.72-.14,13.22-2,23.22-2.61,26.32-2.93,14.89-7.61,25.56-10.51,32.07-3.21,7.19-8.42,18.7-18.42,31.53-2.12,2.72-10.75,13.59-25.96,25.43-27.21,21.17-54.86,29.39-55.34,28.39Z"/>
  <g>
    <path class="cls-3" d="m262.66,173.19h.14c.03.4,1.16,3.59,1.4,4.39,1.03,3.43,2.49,7.7,3.62,11.04.16.47.64,1.88.64,2.29h-11.52l3.93-12.16c.08-.22.12-.34.18-.56l1.61-5h0Zm-46.88-8.86h28.03c1.05.03.79.23.79,1.29,0,.65.07,5.67-.04,5.96-.06.16-.04.08-.1.13-.83.1-6.5.03-7.84.03-4.13,0-9.69-.12-13.77.02-.46.02-.57-.08-.58.34-.03,1.17-.06,8.3,0,8.76,1.09.16,20.09.09,20.25.03.09.08.08.03.14.17.05.11.02.06.04.17l-.09,6.66c-.03.16,0,.06-.05.14-3.4.05-6.76,0-10.16,0-.24,0-9.82-.16-10.06.11-.06.08-.2,10.27-.05,10.89,1.79.16,3.99.08,5.82.09l16.22-.03c.42.02.87.1,1.1-.22-.02-.5.28-1.01.41-1.42.91-2.8,2.29-6.44,3.32-9.22l7.77-21.88c.11-.33.5-1.77.75-1.91.32-.17,2.86-.06,3.48-.06s1.08-.06,1.64-.07h.22c.56,0,1.13,0,1.69,0h2.59c.51.07.55.32.84,1.07l5.44,15.14c.29.88.63,1.77.95,2.66l1.89,5.26c.15.45.32.87.48,1.3l6.14,17.1h-9.2c-.37-.77-1.71-5.24-2.14-6.52l-.55-1.64c-.07-.2-.14-.32-.18-.5h-16.42l-.37,1.06c-.13.41-.21.69-.34,1.09l-2.02,6.5h-38.23v-40.56c0-2.31-.16-1.83.65-1.94.12-.02.68-.03,1.54-.04h0Z"/>
    <path class="cls-3" d="m175.28,193.44c0,2.19.72,4.86,1.63,6.68.99,1.98,2,3.37,3.72,4.66,2.11,1.59,4.6,2.5,7.36,3,.59.11,1.26.23,1.87.24.4.01.52.07.95.07.44,0,.7.02,1.03.06.63.07.9-.02,1.49-.07h.41c2.8,0,6.53-.97,8.86-2.37.87-.52,2.42-1.77,3.03-2.55,1.81-2.33,2.32-3.14,3.14-6.26.22-.86.5-2.31.5-3.32v-29.24h-8.79v27.54c0,3.06-1.05,6.34-3.93,7.73-2.12,1.02-6.27.95-8.34.05-3.53-1.55-4.15-5.23-4.15-9.41v-25.9h-8.79v29.1h0Z"/>
    <path class="cls-3" d="m283.03,270.73v-2.05h-10.16c-1.19,0-2.14.07-3.34.07h-6.75l-6.68.14c-2.25,0-4.5,0-6.75,0s-4.47.07-6.75.07h-6.82c-2.32,0-4.42.07-6.75.07-9.07,0-17.89.21-26.99.21-1.17,0-2.1.07-3.27.07h-10.22c-2.21,0-4.47.14-6.68.14h-6.82v.27l2.46.07c.35,0,.42.07.81.07h8.52c.64,0,1,.07,1.63.07,4.59,0,9.04.07,13.56.07,1.2,0,2.2.07,3.34.07,5.61,0,11.34.13,16.9.13,1.2,0,2.17-.07,3.34-.07,1.86,0,1.61.05,3.27.14h2.52c.38,0,.44.07.81.07,2.66.03,8.21-.16,10.17.06.61.07,5.72,0,6.8,0,1.16,0,2.14.07,3.34.07l30.47.27h0Z"/>
    <path class="cls-3" d="m175.08,213.61v1.84c1.7,0,7.48.08,8.52,0,2.29-.19,4.89-.03,7.3-.06.38,0,.43-.07.81-.07h10.16c1.31,0,2.4-.07,3.68-.07,4.77,0,9.87-.13,14.65-.13h7.36c2.52,0,4.82-.14,7.36-.14,2.08,0,3.94.07,6,.07.46,0,.95-.1,1.36-.14h4.63c8.11,0,16.19-.14,24.27-.14,1.08,0,1.92-.07,3-.07h8.39c.42.01.46.07.47-.34-7.25,0-14.67-.19-21.95-.2-.65,0-1.01.07-1.63.07-.57,0-1.14,0-1.71,0l-13.42-.21c-.65,0-1.04-.07-1.64-.07-9.07.05-18.08-.15-27.19-.14-1.08,0-2.2-.14-3.27-.14h-6.81c-1.22,0-2.2-.07-3.41-.07-4.59,0-9.01-.07-13.56-.07-1.15,0-2.14-.07-3.34-.07h-5.11c-.65,0-1.01-.07-1.63-.07h-2.59c-.32,0-.68-.09-.68.21h0Z"/>
    <path class="cls-3" d="m196.48,254.85l-1.82,5.4c-.14.39-.25.71-.38,1.12l-.68,2.11s-.02.04-.02.05c0,.01-.02.03-.02.05-.05-.22-.1-.3-.17-.51-.08-.24-.11-.35-.19-.56l-2.34-7.2c-.19-.62.03-.45-2.28-.45v10.7h1.43v-8.38l.72,2.08c.23.71.49,1.42.7,2.09l1.38,4.21h1.43c.35-1.51,2.07-5.77,2.58-7.65.07-.27.06-.35.22-.53v3.07c0,.45.07.59.07,1.02,0,1.44.07,2.7.07,4.09.49,0,1.5.23,1.5-.27v-10.09c0-.58-1.59-.34-2.18-.34h0Z"/>
    <path class="cls-3" d="m185.85,219.68v10.36c0,.32.42.2,1.23.2.31,0,.21-.48.2-.82v-7.57l5.18,8.04c.31.5.81.34,1.84.34v-10.5c0-.36-.62-.27-1.02-.27-.65,0-.48.78-.48,1.7v6.61s-.02-.02-.1-.11l-2.66-4.16c-.54-.88-1.69-2.81-2.41-3.72-.36-.46-.66-.33-1.58-.33-.16,0-.2.05-.2.2h0Z"/>
    <path class="cls-3" d="m246.91,265.35c0,.41.9.21,1.5.21v-8.25l4.73,7.26c.76,1.17.22.98,2.22.98v-10.7h-1.43v8.39c-.18-.13-.76-1.21-1.01-1.58l-4.13-6.43c-.31-.53-.61-.37-1.88-.37v10.5h0Z"/>
    <path class="cls-3" d="m268.72,228.81h-2.59v-7.97l1.49-.06c.31.02.56.05.97.06.58,0,1.28.19,1.63.41,2.07,1.31,1.63,5.52.63,6.63-.51.57-1.27.94-2.13.94h0Zm-4.16-9.27c-.02.21-.07.24-.07.48v9.68c0,.24.05.26.07.48.65.15,2.86.07,3.68.07s1.6-.13,2.2-.39c.53-.23.8-.41,1.22-.76.44-.37,1.02-1.35,1.24-2.03.46-1.39.51-3.22.03-4.59-.41-1.18-.66-1.39-1.34-2-.99-.89-2.4-1.01-3.76-1.01-.54,0-2.92-.07-3.27.07h0Z"/>
    <path class="cls-3" d="m248.68,243.06c0-1.42-.03-2.51.85-3.65.22-.29.69-.63,1.04-.8,1.42-.7,2.91-.39,4,.69,1.11,1.11,1,2.43,1,3.9,0,1.64-1.13,3.61-3.27,3.61-.76,0-1.62-.1-2.16-.56-.97-.83-1.45-1.8-1.45-3.18h0Zm-1.63-.89c0,1.88.31,3.23,1.17,4.28,1.14,1.39,2.46,1.72,4.28,1.72,1.41,0,2.56-.7,3.46-1.65,1.5-1.61,1.75-5.78.03-7.9-.82-1.01-2.22-1.69-3.49-1.69s-1.55-.03-2.76.52c-1.81.81-2.69,2.78-2.69,4.73h0Z"/>
    <path class="cls-3" d="m274.51,242.92c0-1.23.08-2.65.9-3.53.34-.36.58-.55,1.05-.79,1.38-.69,3.03-.34,3.92.63,1.17,1.29,1.01,2.38,1.01,4.03,0,1.75-1.27,3.54-3.14,3.54s-2.95-.64-3.48-2.31c-.11-.36-.26-1.09-.26-1.58h0Zm-1.57-1.16c0,1.63,0,3.54,1.21,4.79,1.66,1.72,3.9,2.03,6.06,1.18,1.79-.7,2.82-2.81,2.82-4.88,0-1.08-.02-1.66-.38-2.69-.63-1.79-2.15-3.24-4.18-3.24-1.76,0-2.83.14-4.14,1.45-.84.83-1.38,2.12-1.38,3.39h0Z"/>
    <path class="cls-3" d="m186.59,243.06c0-1.41,0-2.32.86-3.57,1.12-1.62,4.07-1.63,5.29.02,1.05,1.42,1.15,4.43-.08,6.15-.53.74-1.41,1.16-2.39,1.16-1.4,0-1.97-.27-2.68-1-.31-.32-.51-.71-.67-1.17-.15-.4-.33-1.02-.33-1.58h0Zm-1.57-1.09c0,2.52.43,4.55,2.57,5.61,3.23,1.62,7.52.09,7.52-4.93,0-1.76-.32-2.98-1.28-4.17-1.68-2.08-5.52-2.02-7.29-.24-.9.9-1.52,2.35-1.52,3.73h0Z"/>
    <path class="cls-3" d="m224.15,224.38h-2.59v-3.54c1.35-.06,4.77-.49,4.77,1.43,0,1.25-.22,2.11-2.18,2.11h0Zm-4.09-4.84v10.7c.92,0,1.5.14,1.5-.2v-4.36h3.14c1.28,0,1.47.87,1.5,1.98,0,.34.07.38.07.75.02,2.06.05,1.84,2.04,1.84,0-.84-.21-.02-.45-1.25-.19-.94-.12-2.42-.34-3.13-.13-.43-.42-.82-.91-.86.09-.36.3-.12.87-.9.91-1.27.51-3.14-.65-4.02-1.07-.81-4.88-.6-6.42-.6-.11,0-.26.04-.34.07h0Z"/>
    <path class="cls-3" d="m178.69,246.53h-2.11v-7.97c1.52-.07,3.57-.37,4.69.83,1.26,1.36,1.45,6-1,6.88-.43.16-.97.26-1.58.26h0Zm-3.68,1.3h4.7c2.47,0,4.02-2.7,4.02-5.04,0-1.09,0-1.66-.35-2.72-.21-.62-.46-1.05-.84-1.55-.72-.94-2.18-1.32-3.45-1.32h-4.09v10.63h0Z"/>
    <path class="cls-3" d="m248.34,228.81h-2.66v-7.97c2.09,0,3.84-.34,4.91,1.15,1.27,1.78,1.17,6.82-2.25,6.82h0Zm-4.16,1.43h3.68c4.76,0,5.7-4.53,4.71-7.78-.67-2.23-2.62-2.99-4.85-2.99h-3.54v10.77h0Z"/>
    <path class="cls-3" d="m236,264.53c-.9,0-1.76-.36-2.37-.97-1.24-1.24-1.04-2.54-1.04-4.14,0-.93.47-1.99.94-2.47,2.17-2.24,5.95-.82,5.95,2.81,0,1.78-.28,3.58-1.78,4.36-.33.17-1.2.41-1.7.41h0Zm-5.04-4.84c0,2.92.53,4.56,2.84,5.68,1.38.67,3.01.65,4.41.07.46-.19,1.21-.75,1.49-1.1,1.42-1.77,1.76-4.68.91-6.8-.23-.59-.53-1.03-.94-1.44-1.65-1.63-3.93-1.95-5.98-1.04-.57.25-.95.65-1.38,1.07-.73.72-1.35,2.13-1.35,3.56h0Z"/>
    <path class="cls-3" d="m240.64,246.53h-2.04v-7.97h3c1.52,0,2.59,1.71,2.59,3.2,0,2.72-.29,4.77-3.54,4.77h0Zm-3.54-9.13v10.43h4.7c2.28,0,3.95-2.49,3.95-4.84,0-2.06-.26-4.11-1.87-5.08-.31-.19-.53-.32-.87-.42-1.35-.42-4.16-.29-5.71-.29-.16,0-.2.05-.2.2h0Z"/>
    <path class="cls-3" d="m266.54,246.53h-2.04v-7.97c1.01,0,2.6-.23,3.6.14,2.6.96,2.25,5.42,1.18,6.75-.59.74-1.45,1.08-2.74,1.08h0Zm-3.54,1.3h4.7c1.12,0,2.28-.87,2.88-1.68,1.41-1.91,1.48-5.79-.14-7.6-.81-.91-1.74-1.35-3.43-1.35h-4.02v10.63h0Z"/>
    <path class="cls-3" d="m275.33,219.54c-.17.74-.07,8.84-.07,10.29,0,.18.03.19.07.34.72.17,6.3.07,7.5.07.11,0,.18-.06.2-.18v-1.25h-6.13v-3.47h5.59v-1.29h-5.59v-3.14c1.06,0,5.37.1,6.07-.07.03-.13.06-.32.07-.52v-.32c-.02-.29-.09-.53-.27-.53-.94,0-7.03-.09-7.43.07h0Z"/>
    <path class="cls-3" d="m210.31,219.54c-.02.21-.07.24-.07.48v10.02c0,.15.05.2.2.2,1.21,0,6.84.1,7.57-.07.24-.5.07-.75.07-1.36h-6.13c-.16,0-.2-.05-.2-.2v-3.27h5.73v-1.29h-5.52c-.16,0-.2-.05-.2-.21v-2.93h6c.32,0,.2-.42.2-1.23,0-.16-.05-.2-.2-.2-.94,0-7.03-.09-7.43.07h0Z"/>
    <path class="cls-3" d="m200.84,237.4v10.22c0,.16.05.21.2.21h7.63c0-1.35.58-1.46-1.84-1.43-.41,0-.66.07-1.16.07-.81,0-2.62.08-3.27-.07-.15-.63-.07-2.07-.07-2.79,0-.34.06-.31.07-.61h5.66c0-1.66.26-1.36-1.23-1.36h-4.43c-.15-.64-.07-2.25-.07-3h6c.32,0,.21-.42.21-1.23,0-.16-.05-.2-.21-.2h-7.29c-.16,0-.2.05-.2.2h0Z"/>
    <path class="cls-3" d="m275.13,257.23c0,1.96.12,2.65,2.97,3.37,1.32.33,3.43.46,3.43,2.02,0,2.23-5.01,3.09-5.32-.61h-1.5c.12,5.24,7.93,4.76,8.31.88v-.61c-.03-.28-.09-.58-.19-.89-.38-1.11-1.47-1.53-2.56-1.8-.79-.2-1.56-.37-2.3-.56-1.58-.4-2.02-1.75-.78-2.72.74-.59,2.58-.58,3.34.1.46.41.71,1.01.72,1.66h1.5c0-.46-.13-1.12-.27-1.43-.23-.5-.36-.67-.73-1.04-1.49-1.49-4.66-1.27-6.04.26-.31.34-.59.84-.59,1.39h0Z"/>
    <path class="cls-3" d="m210.18,239.79c0,1.03.04,1.66.95,2.32.54.38,1.2.58,1.94.79,1.8.51,3.52.37,3.52,2.21,0,1-1.27,1.7-2.32,1.7-.89,0-1.67-.11-2.29-.78-.83-.89-.48-1.74-.92-1.74h-1.23c0,2.17,1.56,3.82,3.48,3.82,1.79,0,3.53.02,4.48-1.86.58-1.16.44-2.53-.44-3.41-1.56-1.56-5.74-.81-5.74-2.91,0-1.55,2.35-2.41,3.99-1.19.45.34.72.83.72,1.6.52.04.82.16,1.5,0,0-4.83-7.63-4.12-7.63-.55h0Z"/>
    <path class="cls-3" d="m230.08,222.13c0,.97,0,1.63.87,2.27,2,1.46,5.54.63,5.54,2.98,0,1.09-1.4,1.77-2.32,1.77s-1.59-.04-2.3-.77c-.98-.99-.37-1.76-.83-1.76h-1.3c0,5.47,8.25,4.59,8.25.82,0-3.39-2.67-3.01-5.05-3.74-1.24-.38-1.42-.8-1.42-1.78,0-1.17,2.6-2.06,4.07-.8.83.71.41,1.62.84,1.62,1.16,0,1.29.12,1.29-.27,0-1.03-.57-1.94-1.16-2.39-2.41-1.84-6.48-.6-6.48,2.05h0Z"/>
    <path class="cls-3" d="m175.01,226.56c0,2.73,1.69,3.95,4.29,3.95,1.11,0,2.01-.36,2.79-1.03l.07-.06s.03-.02.04-.03l.17-.17c.83-1,1.02-2.02,1.02-3.41v-6.13c0-.34-.58-.2-1.5-.2,0,1.62.14,6.87-.3,8.15-.61,1.79-3.56,1.68-4.49.66-.37-.41-.59-1.35-.59-2.13v-6.68h-1.5v7.09h0Z"/>
    <path class="cls-3" d="m178.55,256.69c.31.23.69,1.51.85,2.01.13.4.23.68.35,1.08.19.62.36.59.36,1.34h-3.07c.04-.16.1-.31.17-.51l1.33-3.92h0Zm-4.63,8.86h0c.03-.36.31-1.05.43-1.41l3.45-9.3h1.7c.02.25.37,1.11.48,1.37l.99,2.69c.17.45.33.84.48,1.29.32.95.65,1.77.99,2.69.31.84.72,1.73.95,2.67h-1.64c-.05-.63-.97-2.52-1.02-3.14h-4.22c-.2.41-.37,1.1-.52,1.59l-.57,1.55h-1.5Z"/>
    <path class="cls-3" d="m208.54,256.62c.14.59,1.09,3.08,1.35,3.9.09.28.1.36.22.6h-3.13c.03-.35,1.34-4.17,1.57-4.5h0Zm-4.77,8.93h1.57c.13-.54.36-1.1.54-1.58l.55-1.56h4.16l.8,2.34c.11.29.22.49.29.8h1.64l-.72-2c-.81-2.32-1.89-5.04-2.79-7.43-.55-1.46-.07-1.27-1.87-1.27-.34,0-.54.86-.65,1.19-.16.46-.33.9-.51,1.34l-2.01,5.42c-.18.46-.35.91-.5,1.34-.16.48-.37.94-.49,1.42h0Z"/>
    <path class="cls-3" d="m258.5,221.31c.2.85,1.36,3.85,1.5,4.43h-3.14c0-.29.6-1.86.74-2.26.14-.38.25-.7.39-1.11.13-.4.2-.86.5-1.07h0Zm-4.64,8.93c1.54,0,1.29.14,1.56-.69.1-.32.2-.52.31-.85l.59-1.66h4.16c.14.61.6,1.75.83,2.38.08.21.17.64.26.82h1.63c-.03-.38-1.85-5.08-1.99-5.44l-1.78-4.76c-.26-.69.04-.57-1.69-.57-.27,0-.26.34-.33.55-.36,1.13-1.33,3.44-1.79,4.82l-1.91,5.19c-.03.11-.1.2.14.2h0Z"/>
    <path class="cls-3" d="m218.15,256.14h6c-.05.2-.23.38-.35.54l-5.39,6.74c-.86,1.02-.68,1.12-.59,2.14h8.18v-1.36h-6.34l1.18-1.48c.17-.19.26-.32.42-.53l3.63-4.54c1.25-1.51,1.11-1.28,1.11-2.78h-7.84v1.3h0Z"/>
    <path class="cls-3" d="m265.38,256.69c.03.35.93,2.76,1.12,3.31.12.35.24.83.38,1.12h-3.2l1.17-3.4c.11-.31.29-.85.54-1.03h0Zm-4.84,8.86h1.5c.05-.21.08-.2.16-.39l.47-1.24c.69-1.9-.31-1.51,4.49-1.51.34,0,.52.95.71,1.47.14.39.51,1.26.52,1.66h1.64c-.14-.58-.21-.83-.43-1.34-.54-1.28-1.66-4.41-2.22-5.96l-1.23-3.4h-1.7l-1.95,5.35c-.18.46-.3.84-.48,1.3-.25.65-1.43,3.7-1.46,4.06h0Z"/>
    <path class="cls-3" d="m231.37,238.97c.04.54,1.31,3.6,1.5,4.43h-3.14c0-.29.63-1.84.76-2.24.12-.37.24-.73.37-1.12.11-.34.28-.9.5-1.07h0Zm-4.84,8.86h1.63c.02-.29.6-1.87.76-2.31.09-.24.24-.55.27-.83h4.16l.51,1.54c.14.43.5,1.15.51,1.6h1.7c-.06-.26-.14-.4-.23-.66l-1.51-4.01c-.58-1.42-1.15-3.21-1.76-4.71-.61-1.52-.07-1.26-1.95-1.26-.27,0-.43.77-.6,1.24l-2.24,6.01c-.09.26-.15.45-.25.71-.18.47-.33.86-.5,1.34l-.5,1.34h0Z"/>
    <path class="cls-3" d="m203.77,230.24c1.8,0,1.23.25,1.81-1.25.09-.24.16-.45.22-.66.09-.27.16-.42.26-.7l.97-2.78c.31-.94.6-1.8.94-2.75l.74-2.06c.25-.69.37-.57-1.25-.57-.27,0-.22.35-.43,1l-1.86,5.57c-.14.41-.49,1.92-.84,2.15-.03-.32-2.06-6.15-2.24-6.62l-.57-1.68c-.21-.55-.02-.43-1.62-.43.01.45.66,2.28.85,2.77.18.46.34.91.51,1.33l1.93,5.43c.1.26.3,1.24.6,1.24h0Z"/>
    <path class="cls-3" d="m218.83,237.4c0,.78-.11,1.16.21,1.16h3.2v9.27h1.5v-9.27h3.27c.12-.49.07-.57.07-1.16,0-.16-.05-.2-.2-.2h-7.84c-.16,0-.21.05-.21.2h0Z"/>
    <path class="cls-3" d="m196.82,219.54v9.68c0,1.15-.25,1.02,1.57,1.02v-10.5c0-.46-1.44-.25-1.57-.2h0Z"/>
    <path class="cls-3" d="m240.1,219.68v10.36c0,.34.58.2,1.5.2v-10.77c-.92,0-1.5-.14-1.5.2h0Z"/>
    <path class="cls-3" d="m242.52,180.9c-.22-.21-.68-.14-1.06-.14h-19.08s0-8.86,0-8.86h21.8c.24-.06.23-.12.28-.19-.83.1-6.5.03-7.84.03-4.13,0-9.69-.12-13.77.02-.46.02-.57-.08-.58.34-.03,1.17-.06,8.3,0,8.76,1.09.16,20.09.09,20.25.03h0Z"/>
    <path class="cls-3" d="m245.42,198.89c-.44,0-.83.07-1.37.07h-21.67v-10.77h5.11c1.76,0,3.3-.07,5.04-.07h6.34c.52,0,.74.07,1.22.07h1.91c.36,0,.41.06.54-.15-3.4.05-6.76,0-10.16,0-.24,0-9.82-.16-10.06.11-.06.08-.2,10.27-.05,10.89,1.79.16,3.99.08,5.82.09l16.22-.03c.42.02.87.1,1.1-.22h0Z"/>
  </g>
</svg>