<?xml version="1.0" encoding="UTF-8"?>
<svg id="Capa_1" data-name="Capa 1" xmlns="http://www.w3.org/2000/svg" viewBox="0 0 1374.59 1080">
  <defs>
    <style>
      .cls-1 {
        fill: #064892;
      }

      .cls-2, .cls-3 {
        fill: #1c2340;
      }

      .cls-3 {
        fill-rule: evenodd;
      }
    </style>
  </defs>
  <path class="cls-2" d="m957.83,269.65c-11.25-23.41-127.55-115.47-282.43-111.49-66.29,1.7-104.65,13.58-153.39,35.52-54.62,24.57-114.71,71.46-136.57,105.61-17.1,26.7,2.74,51.88,33.69,60.09,12.74,2.74,31.44-.48,54.62-5.47,44-9.45,76.23-23.36,87.85-29.13,39.7-19.73,125.12-61.53,184.34-74.65,119.57-26.47,217.81,31.92,211.88,19.56v-.03Z"/>
  <path class="cls-1" d="m654.47,281.5c11.75,7.25,103.76,11.17,198.2,97.15,14.52,13.22,22.12,24.7,40.84,28.9,19.53,4.38,41.06,11.1,68.68-10.44,27.05-21.1,28.14-56.42,28.22-61,.28-18.19-5.98-32.27-9.09-39.14,0,0-8.26-18.11-23.66-32.78-41.11-39.11-148.04-25.33-166.59-22.75-32.73,4.56-81.04,14.74-136.57,40.05h-.03Z"/>
  <path class="cls-1" d="m470.61,699.82c-1.75-45.85.38-82.99,2.74-108.9,2.86-31.39,8.16-69.61,2.74-121.09-2.79-26.5-6.38-36.99-11.83-46.43-13.43-23.23-42.99-48.23-79.21-45.52-32.48,2.43-52.89,25.84-57.35,30.96-1.72,1.98-10.72,12.46-16.39,27.31-18.54,48.54,13,105.1,30.04,135.66,5.37,9.63,27.64,48.33,71.01,86.48,21.81,19.18,42.51,32.55,58.26,41.55Z"/>
  <path class="cls-2" d="m313.85,429.85c-1.17-.1-2.89,7.37-6.33,22.34-2.51,10.94-4.36,20.24-5.62,27.16,0,0-4.61,27.69-4.79,56.9-.58,95.81,39.59,173.43,39.59,173.43,4.71,9.12,26.27,53.76,71.97,97.58,17.45,16.74,31.46,30.42,50.54,44.38,43.47,31.84,76.96,50.56,121.92,58.77,15.5,2.84,31.51,10.46,46.43,2.74,13.32-6.92,18.82-20.8,19.96-23.89,5.47-14.87,1.44-27.97-.33-33.46-2.2-6.81-5.7-13.12-21.68-31.06-16.74-18.8-28.17-29.36-28.17-29.36-25.59-23.66-58.06-51.12-82.1-68.95-3.6-2.66-16.36-12.08-32.78-25.61-2.25-1.85-3.6-3.32-6.16-5.12-6.11-4.31-9.27-4.53-10.82-5.8-13.17-10.79-40-25.51-46.89-32.78-29.71-31.29-30.07-28.68-49.63-53.48-9.98-12.67-15.88-23.23-22.75-35.52-9.93-17.76-21.03-37.59-27.31-61.91-10.64-41.24-2.43-76.12-5.12-76.35h.05Z"/>
  <path class="cls-1" d="m796.36,918.26c9.68-2.86,20.29-8.21,47.8-34.83,16.49-15.96,24.75-23.96,31.74-33.46,12.26-16.62,18.14-30.75,25.26-48.13,4.43-10.82,4.43-12.34,24.24-87.04,0,0,3.7-13.98,6.84-40.96,1.62-14.14,1.77-21.94-.33-22.52-1.39-.41-3.32,2.46-3.75,3.07-10.01,14.11-83.32,60.14-127.12,80.56-17.07,7.95-43.88,10.34-80.46,42.33-13,11.37-28.17,26.19-33.11,48.82-.56,2.56-2.61,12.59-1.01,25.61.71,5.93,3.5,26.32,20.14,44.38,14.39,15.6,31.06,20.65,37.54,22.52,14.57,4.21,26.95,3.45,32.43,3.07,10.56-.73,18.32-2.99,19.81-3.42l-.03.03Z"/>
  <path class="cls-2" d="m791.57,919.63c-.84-1.7,29.66-12.56,61.23-44.84,7.5-7.68,19.58-20.19,30.5-39.59,10.56-18.75,16.14-37.01,22.98-59.4,2.36-7.7,3.8-13.05,6.16-21.84,6.18-23.05,11.83-44.41,15.02-69.41,1.57-12.26.63-10.41,2.51-31.41,3.24-36.33,6.51-47.14,11.83-89.22,4.76-37.64,2.69-33.24,6.38-56.21,2.33-14.49,7.19-41.29,20.95-71.23,6.92-15.05,12.18-22.39,20.27-27.99,3.34-2.31,16.8-11.3,34.38-8.18,13.86,2.46,22.27,10.99,24.57,13.43,7.35,7.7,10.03,16.04,12.29,23.66,9.68,32.98,12.74,58.04,12.74,58.04,2.2,18.09,4.36,35.72,4.1,60.09-.35,33.49-5.07,58.82-6.61,66.67-7.42,37.72-19.28,64.75-26.62,81.24-8.13,18.21-21.33,47.37-46.66,79.87-5.37,6.89-27.23,34.43-65.76,64.42-68.93,53.63-138.97,74.45-140.19,71.92h-.05Z"/>
  <g>
    <path class="cls-3" d="m771.23,432.18h.35c.08,1.01,2.94,9.09,3.55,11.12,2.61,8.69,6.31,19.51,9.17,27.97.41,1.19,1.62,4.76,1.62,5.8h-29.18l9.96-30.8c.2-.56.3-.86.46-1.42l4.08-12.67h0Zm-118.76-22.44h71.01c2.66.08,2,.58,2,3.27,0,1.65.18,14.36-.1,15.1-.15.41-.1.2-.25.33-2.1.25-16.47.08-19.86.08-10.46,0-24.55-.3-34.88.05-1.17.05-1.44-.2-1.47.86-.08,2.96-.15,21.03,0,22.19,2.76.41,50.89.23,51.3.08.23.2.2.08.35.43.13.28.05.15.1.43l-.23,16.87c-.08.41,0,.15-.13.35-8.61.13-17.12,0-25.74,0-.61,0-24.88-.41-25.48.28-.15.2-.51,26.02-.13,27.59,4.53.41,10.11.2,14.74.23l41.09-.08c1.06.05,2.2.25,2.79-.56-.05-1.27.71-2.56,1.04-3.6,2.31-7.09,5.8-16.31,8.41-23.36l19.68-55.43c.28-.84,1.27-4.48,1.9-4.84.81-.43,7.25-.15,8.82-.15s2.74-.15,4.15-.18h11.4c1.29.18,1.39.81,2.13,2.71l13.78,38.35c.73,2.23,1.6,4.48,2.41,6.74l4.79,13.32c.38,1.14.81,2.2,1.22,3.29l15.55,43.32h-23.31c-.94-1.95-4.33-13.27-5.42-16.52l-1.39-4.15c-.18-.51-.35-.81-.46-1.27h-41.6l-.94,2.69c-.33,1.04-.53,1.75-.86,2.76l-5.12,16.47h-96.85v-102.75c0-5.85-.41-4.64,1.65-4.91.3-.05,1.72-.08,3.9-.1h0v.1Z"/>
    <path class="cls-3" d="m549.87,483.48c0,5.55,1.82,12.31,4.13,16.92,2.51,5.02,5.07,8.54,9.42,11.8,5.35,4.03,11.65,6.33,18.64,7.6,1.49.28,3.19.58,4.74.61,1.01.03,1.32.18,2.41.18s1.77.05,2.61.15c1.6.18,2.28-.05,3.77-.18h1.04c7.09,0,16.54-2.46,22.44-6,2.2-1.32,6.13-4.48,7.68-6.46,4.59-5.9,5.88-7.95,7.95-15.86.56-2.18,1.27-5.85,1.27-8.41v-74.07h-22.27v69.77c0,7.75-2.66,16.06-9.96,19.58-5.37,2.58-15.88,2.41-21.13.13-8.94-3.93-10.51-13.25-10.51-23.84v-65.61h-22.27v73.72h0l.03-.03Z"/>
    <path class="cls-3" d="m822.83,679.27v-5.19h-25.74c-3.01,0-5.42.18-8.46.18h-17.1l-16.92.35h-17.1c-5.7,0-11.32.18-17.1.18h-17.28c-5.88,0-11.2.18-17.1.18-22.98,0-45.32.53-68.37.53-2.96,0-5.32.18-8.28.18h-25.89c-5.6,0-11.32.35-16.92.35h-17.28v.68l6.23.18c.89,0,1.06.18,2.05.18h21.58c1.62,0,2.53.18,4.13.18,11.63,0,22.9.18,34.35.18,3.04,0,5.57.18,8.46.18,14.21,0,28.73.33,42.81.33,3.04,0,5.5-.18,8.46-.18,4.71,0,4.08.13,8.28.35h6.38c.96,0,1.11.18,2.05.18,6.74.08,20.8-.41,25.76.15,1.55.18,14.49,0,17.23,0,2.94,0,5.42.18,8.46.18l77.19.68h0l.1-.03Z"/>
    <path class="cls-3" d="m549.37,534.58v4.66c4.31,0,18.95.2,21.58,0,5.8-.48,12.39-.08,18.49-.15.96,0,1.09-.18,2.05-.18h25.74c3.32,0,6.08-.18,9.32-.18,12.08,0,25-.33,37.11-.33h18.64c6.38,0,12.21-.35,18.64-.35,5.27,0,9.98.18,15.2.18,1.17,0,2.41-.25,3.45-.35h11.73c20.54,0,41.01-.35,61.48-.35,2.74,0,4.86-.18,7.6-.18h21.25c1.06.03,1.17.18,1.19-.86-18.37,0-37.16-.48-55.6-.51-1.65,0-2.56.18-4.13.18h-4.33l-34-.53c-1.65,0-2.63-.18-4.15-.18-22.98.13-45.8-.38-68.88-.35-2.74,0-5.57-.35-8.28-.35h-17.25c-3.09,0-5.57-.18-8.64-.18-11.63,0-22.82-.18-34.35-.18-2.91,0-5.42-.18-8.46-.18h-12.94c-1.65,0-2.56-.18-4.13-.18h-6.56c-.81,0-1.72-.23-1.72.53h0l-.05.03Z"/>
    <path class="cls-3" d="m603.58,639.05l-4.61,13.68c-.35.99-.63,1.8-.96,2.84l-1.72,5.35s-.05.1-.05.13-.05.08-.05.13c-.13-.56-.25-.76-.43-1.29-.2-.61-.28-.89-.48-1.42l-5.93-18.24c-.48-1.57.08-1.14-5.78-1.14v27.11h3.62v-21.23l1.82,5.27c.58,1.8,1.24,3.6,1.77,5.29l3.5,10.66h3.62c.89-3.83,5.24-14.62,6.54-19.38.18-.68.15-.89.56-1.34v7.78c0,1.14.18,1.49.18,2.58,0,3.65.18,6.84.18,10.36,1.24,0,3.8.58,3.8-.68v-25.56c0-1.47-4.03-.86-5.52-.86h0l-.05-.03Z"/>
    <path class="cls-3" d="m576.65,549.95v26.24c0,.81,1.06.51,3.12.51.79,0,.53-1.22.51-2.08v-19.18l13.12,20.37c.79,1.27,2.05.86,4.66.86v-26.6c0-.91-1.57-.68-2.58-.68-1.65,0-1.22,1.98-1.22,4.31v16.74s-.05-.05-.25-.28l-6.74-10.54c-1.37-2.23-4.28-7.12-6.11-9.42-.91-1.17-1.67-.84-4-.84-.41,0-.51.13-.51.51h0v.08Z"/>
    <path class="cls-3" d="m731.33,665.65c0,1.04,2.28.53,3.8.53v-20.9l11.98,18.39c1.93,2.96.56,2.48,5.62,2.48v-27.11h-3.62v21.25c-.46-.33-1.93-3.07-2.56-4l-10.46-16.29c-.79-1.34-1.55-.94-4.76-.94v26.6h0v-.03Z"/>
    <path class="cls-3" d="m786.58,573.08h-6.56v-20.19l3.77-.15c.79.05,1.42.13,2.46.15,1.47,0,3.24.48,4.13,1.04,5.24,3.32,4.13,13.98,1.6,16.8-1.29,1.44-3.22,2.38-5.4,2.38h0v-.03Zm-10.54-23.48c-.05.53-.18.61-.18,1.22v24.52c0,.61.13.66.18,1.22,1.65.38,7.25.18,9.32.18s4.05-.33,5.57-.99c1.34-.58,2.03-1.04,3.09-1.93,1.11-.94,2.58-3.42,3.14-5.14,1.17-3.52,1.29-8.16.08-11.63-1.04-2.99-1.67-3.52-3.39-5.07-2.51-2.25-6.08-2.56-9.53-2.56-1.37,0-7.4-.18-8.28.18h0Z"/>
    <path class="cls-3" d="m735.81,609.18c0-3.6-.08-6.36,2.15-9.25.56-.73,1.75-1.6,2.63-2.03,3.6-1.77,7.37-.99,10.13,1.75,2.81,2.81,2.53,6.16,2.53,9.88,0,4.15-2.86,9.15-8.28,9.15-1.93,0-4.1-.25-5.47-1.42-2.46-2.1-3.67-4.56-3.67-8.06h0l-.03-.03Zm-4.13-2.25c0,4.76.79,8.18,2.96,10.84,2.89,3.52,6.23,4.36,10.84,4.36,3.57,0,6.49-1.77,8.77-4.18,3.8-4.08,4.43-14.64.08-20.01-2.08-2.56-5.62-4.28-8.84-4.28s-3.93-.08-6.99,1.32c-4.59,2.05-6.81,7.04-6.81,11.98h0v-.03Z"/>
    <path class="cls-3" d="m801.25,608.82c0-3.12.2-6.71,2.28-8.94.86-.91,1.47-1.39,2.66-2,3.5-1.75,7.68-.86,9.93,1.6,2.96,3.27,2.56,6.03,2.56,10.21,0,4.43-3.22,8.97-7.95,8.97s-7.47-1.62-8.82-5.85c-.28-.91-.66-2.76-.66-4h0v.03Zm-3.98-2.94c0,4.13,0,8.97,3.07,12.13,4.21,4.36,9.88,5.14,15.35,2.99,4.53-1.77,7.14-7.12,7.14-12.36,0-2.74-.05-4.21-.96-6.81-1.6-4.53-5.45-8.21-10.59-8.21-4.46,0-7.17.35-10.49,3.67-2.13,2.1-3.5,5.37-3.5,8.59h-.03Z"/>
    <path class="cls-3" d="m578.52,609.18c0-3.57,0-5.88,2.18-9.04,2.84-4.1,10.31-4.13,13.4.05,2.66,3.6,2.91,11.22-.2,15.58-1.34,1.87-3.57,2.94-6.05,2.94-3.55,0-4.99-.68-6.79-2.53-.79-.81-1.29-1.8-1.7-2.96-.38-1.01-.84-2.58-.84-4h0v-.03Zm-3.98-2.76c0,6.38,1.09,11.53,6.51,14.21,8.18,4.1,19.05.23,19.05-12.49,0-4.46-.81-7.55-3.24-10.56-4.26-5.27-13.98-5.12-18.47-.61-2.28,2.28-3.85,5.95-3.85,9.45h0Z"/>
    <path class="cls-3" d="m673.67,561.86h-6.56v-8.97c3.42-.15,12.08-1.24,12.08,3.62,0,3.17-.56,5.35-5.52,5.35h0Zm-10.36-12.26v27.11c2.33,0,3.8.35,3.8-.51v-11.04h7.95c3.24,0,3.72,2.2,3.8,5.02,0,.86.18.96.18,1.9.05,5.22.13,4.66,5.17,4.66,0-2.13-.53-.05-1.14-3.17-.48-2.38-.3-6.13-.86-7.93-.33-1.09-1.06-2.08-2.31-2.18.23-.91.76-.3,2.2-2.28,2.31-3.22,1.29-7.95-1.65-10.18-2.71-2.05-12.36-1.52-16.26-1.52-.28,0-.66.1-.86.18h0l-.03-.05Z"/>
    <path class="cls-3" d="m558.51,617.97h-5.35v-20.19c3.85-.18,9.04-.94,11.88,2.1,3.19,3.45,3.67,15.2-2.53,17.43-1.09.41-2.46.66-4,.66h0Zm-9.32,3.29h11.91c6.26,0,10.18-6.84,10.18-12.77,0-2.76,0-4.21-.89-6.89-.53-1.57-1.17-2.66-2.13-3.93-1.82-2.38-5.52-3.34-8.74-3.34h-10.36v26.93h.03Z"/>
    <path class="cls-3" d="m734.95,573.08h-6.74v-20.19c5.29,0,9.73-.86,12.44,2.91,3.22,4.51,2.96,17.28-5.7,17.28h0Zm-10.54,3.62h9.32c12.06,0,14.44-11.48,11.93-19.71-1.7-5.65-6.64-7.57-12.29-7.57h-8.97v27.28h0Z"/>
    <path class="cls-3" d="m703.69,663.57c-2.28,0-4.46-.91-6-2.46-3.14-3.14-2.63-6.43-2.63-10.49,0-2.36,1.19-5.04,2.38-6.26,5.5-5.67,15.07-2.08,15.07,7.12,0,4.51-.71,9.07-4.51,11.04-.84.43-3.04,1.04-4.31,1.04h0Zm-12.77-12.26c0,7.4,1.34,11.55,7.19,14.39,3.5,1.7,7.63,1.65,11.17.18,1.17-.48,3.07-1.9,3.77-2.79,3.6-4.48,4.46-11.86,2.31-17.23-.58-1.49-1.34-2.61-2.38-3.65-4.18-4.13-9.96-4.94-15.15-2.63-1.44.63-2.41,1.65-3.5,2.71-1.85,1.82-3.42,5.4-3.42,9.02h0Z"/>
    <path class="cls-3" d="m715.44,617.97h-5.17v-20.19h7.6c3.85,0,6.56,4.33,6.56,8.11,0,6.89-.73,12.08-8.97,12.08h-.03Zm-8.97-23.13v26.42h11.91c5.78,0,10.01-6.31,10.01-12.26,0-5.22-.66-10.41-4.74-12.87-.79-.48-1.34-.81-2.2-1.06-3.42-1.06-10.54-.73-14.46-.73-.41,0-.51.13-.51.51h0Z"/>
    <path class="cls-3" d="m781.06,617.97h-5.17v-20.19c2.56,0,6.59-.58,9.12.35,6.59,2.43,5.7,13.73,2.99,17.1-1.49,1.87-3.67,2.74-6.94,2.74h0Zm-8.97,3.29h11.91c2.84,0,5.78-2.2,7.3-4.26,3.57-4.84,3.75-14.67-.35-19.25-2.05-2.31-4.41-3.42-8.69-3.42h-10.18v26.93h.03Z"/>
    <path class="cls-3" d="m803.32,549.6c-.43,1.87-.18,22.39-.18,26.07,0,.46.08.48.18.86,1.82.43,15.96.18,19,.18.28,0,.46-.15.51-.46v-3.17h-15.53v-8.79h14.16v-3.27h-14.16v-7.95c2.69,0,13.6.25,15.38-.18.08-.33.15-.81.18-1.32v-.81c-.05-.73-.23-1.34-.68-1.34-2.38,0-17.81-.23-18.82.18h-.03Z"/>
    <path class="cls-3" d="m638.61,549.6c-.05.53-.18.61-.18,1.22v25.38c0,.38.13.51.51.51,3.07,0,17.33.25,19.18-.18.61-1.27.18-1.9.18-3.45h-15.53c-.41,0-.51-.13-.51-.51v-8.28h14.52v-3.27h-13.98c-.41,0-.51-.13-.51-.53v-7.42h15.2c.81,0,.51-1.06.51-3.12,0-.41-.13-.51-.51-.51-2.38,0-17.81-.23-18.82.18h0l-.05-.03Z"/>
    <path class="cls-3" d="m614.62,594.84v25.89c0,.41.13.53.51.53h19.33c0-3.42,1.47-3.7-4.66-3.62-1.04,0-1.67.18-2.94.18-2.05,0-6.64.2-8.28-.18-.38-1.6-.18-5.24-.18-7.07,0-.86.15-.79.18-1.55h14.34c0-4.21.66-3.45-3.12-3.45h-11.22c-.38-1.62-.18-5.7-.18-7.6h15.2c.81,0,.53-1.06.53-3.12,0-.41-.13-.51-.53-.51h-18.47c-.41,0-.51.13-.51.51h0v-.03Z"/>
    <path class="cls-3" d="m802.82,645.08c0,4.97.3,6.71,7.52,8.54,3.34.84,8.69,1.17,8.69,5.12,0,5.65-12.69,7.83-13.48-1.55h-3.8c.3,13.27,20.09,12.06,21.05,2.23v-1.55c-.08-.71-.23-1.47-.48-2.25-.96-2.81-3.72-3.88-6.49-4.56-2-.51-3.95-.94-5.83-1.42-4-1.01-5.12-4.43-1.98-6.89,1.87-1.49,6.54-1.47,8.46.25,1.17,1.04,1.8,2.56,1.82,4.21h3.8c0-1.17-.33-2.84-.68-3.62-.58-1.27-.91-1.7-1.85-2.63-3.77-3.77-11.8-3.22-15.3.66-.79.86-1.49,2.13-1.49,3.52h0l.03-.05Z"/>
    <path class="cls-3" d="m638.28,600.9c0,2.61.1,4.21,2.41,5.88,1.37.96,3.04,1.47,4.91,2,4.56,1.29,8.92.94,8.92,5.6,0,2.53-3.22,4.31-5.88,4.31-2.25,0-4.23-.28-5.8-1.98-2.1-2.25-1.22-4.41-2.33-4.41h-3.12c0,5.5,3.95,9.68,8.82,9.68,4.53,0,8.94.05,11.35-4.71,1.47-2.94,1.11-6.41-1.11-8.64-3.95-3.95-14.54-2.05-14.54-7.37,0-3.93,5.95-6.11,10.11-3.01,1.14.86,1.82,2.1,1.82,4.05,1.32.1,2.08.41,3.8,0,0-12.24-19.33-10.44-19.33-1.39h-.03Z"/>
    <path class="cls-3" d="m688.69,556.16c0,2.46,0,4.13,2.2,5.75,5.07,3.7,14.03,1.6,14.03,7.55,0,2.76-3.55,4.48-5.88,4.48s-4.03-.1-5.83-1.95c-2.48-2.51-.94-4.46-2.1-4.46h-3.29c0,13.86,20.9,11.63,20.9,2.08,0-8.59-6.76-7.63-12.79-9.47-3.14-.96-3.6-2.03-3.6-4.51,0-2.96,6.59-5.22,10.31-2.03,2.1,1.8,1.04,4.1,2.13,4.1,2.94,0,3.27.3,3.27-.68,0-2.61-1.44-4.91-2.94-6.05-6.11-4.66-16.42-1.52-16.42,5.19h0Z"/>
    <path class="cls-3" d="m549.19,567.38c0,6.92,4.28,10.01,10.87,10.01,2.81,0,5.09-.91,7.07-2.61l.18-.15s.08-.05.1-.08l.43-.43c2.1-2.53,2.58-5.12,2.58-8.64v-15.53c0-.86-1.47-.51-3.8-.51,0,4.1.35,17.4-.76,20.65-1.55,4.53-9.02,4.26-11.37,1.67-.94-1.04-1.49-3.42-1.49-5.4v-16.92h-3.8v17.96h0v-.03Z"/>
    <path class="cls-3" d="m558.16,643.71c.79.58,1.75,3.83,2.15,5.09.33,1.01.58,1.72.89,2.74.48,1.57.91,1.49.91,3.39h-7.78c.1-.41.25-.79.43-1.29l3.37-9.93h.03Zm-11.73,22.44h0c.08-.91.79-2.66,1.09-3.57l8.74-23.56h4.31c.05.63.94,2.81,1.22,3.47l2.51,6.81c.43,1.14.84,2.13,1.22,3.27.81,2.41,1.65,4.48,2.51,6.81.79,2.13,1.82,4.38,2.41,6.76h-4.15c-.13-1.6-2.46-6.38-2.58-7.95h-10.69c-.51,1.04-.94,2.79-1.32,4.03l-1.44,3.93h-3.8,0Z"/>
    <path class="cls-3" d="m634.13,643.53c.35,1.49,2.76,7.8,3.42,9.88.23.71.25.91.56,1.52h-7.93c.08-.89,3.39-10.56,3.98-11.4h-.03Zm-12.08,22.62h3.98c.33-1.37.91-2.79,1.37-4l1.39-3.95h10.54l2.03,5.93c.28.73.56,1.24.73,2.03h4.15l-1.82-5.07c-2.05-5.88-4.79-12.77-7.07-18.82-1.39-3.7-.18-3.22-4.74-3.22-.86,0-1.37,2.18-1.65,3.01-.41,1.17-.84,2.28-1.29,3.39l-5.09,13.73c-.46,1.17-.89,2.31-1.27,3.39-.41,1.22-.94,2.38-1.24,3.6h0l-.03-.03Z"/>
    <path class="cls-3" d="m760.69,554.08c.51,2.15,3.45,9.75,3.8,11.22h-7.95c0-.73,1.52-4.71,1.87-5.73.35-.96.63-1.77.99-2.81.33-1.01.51-2.18,1.27-2.71h0l.03.03Zm-11.75,22.62c3.9,0,3.27.35,3.95-1.75.25-.81.51-1.32.79-2.15l1.49-4.21h10.54c.35,1.55,1.52,4.43,2.1,6.03.2.53.43,1.62.66,2.08h4.13c-.08-.96-4.69-12.87-5.04-13.78l-4.51-12.06c-.66-1.75.1-1.44-4.28-1.44-.68,0-.66.86-.84,1.39-.91,2.86-3.37,8.71-4.53,12.21l-4.84,13.15c-.08.28-.25.51.35.51h0l.03.03Z"/>
    <path class="cls-3" d="m658.47,642.31h15.2c-.13.51-.58.96-.89,1.37l-13.65,17.07c-2.18,2.58-1.72,2.84-1.49,5.42h20.72v-3.45h-16.06l2.99-3.75c.43-.48.66-.81,1.06-1.34l9.2-11.5c3.17-3.83,2.81-3.24,2.81-7.04h-19.86v3.29h0l-.03-.08Z"/>
    <path class="cls-3" d="m778.12,643.71c.08.89,2.36,6.99,2.84,8.39.3.89.61,2.1.96,2.84h-8.11l2.96-8.61c.28-.79.73-2.15,1.37-2.61h-.03Zm-12.26,22.44h3.8c.13-.53.2-.51.41-.99l1.19-3.14c1.75-4.81-.79-3.83,11.37-3.83.86,0,1.32,2.41,1.8,3.72.35.99,1.29,3.19,1.32,4.21h4.15c-.35-1.47-.53-2.1-1.09-3.39-1.37-3.24-4.21-11.17-5.62-15.1l-3.12-8.61h-4.31l-4.94,13.55c-.46,1.17-.76,2.13-1.22,3.29-.63,1.65-3.62,9.37-3.7,10.28h-.05Z"/>
    <path class="cls-3" d="m691.96,598.82c.1,1.37,3.32,9.12,3.8,11.22h-7.95c0-.73,1.6-4.66,1.93-5.67.3-.94.61-1.85.94-2.84.28-.86.71-2.28,1.27-2.71h.03Zm-12.26,22.44h4.13c.05-.73,1.52-4.74,1.93-5.85.23-.61.61-1.39.68-2.1h10.54l1.29,3.9c.35,1.09,1.27,2.91,1.29,4.05h4.31c-.15-.66-.35-1.01-.58-1.67l-3.83-10.16c-1.47-3.6-2.91-8.13-4.46-11.93-1.55-3.85-.18-3.19-4.94-3.19-.68,0-1.09,1.95-1.52,3.14l-5.67,15.22c-.23.66-.38,1.14-.63,1.8-.46,1.19-.84,2.18-1.27,3.39l-1.27,3.39h0Z"/>
    <path class="cls-3" d="m622.04,576.7c4.56,0,3.12.63,4.59-3.17.23-.61.41-1.14.56-1.67.23-.68.41-1.06.66-1.77l2.46-7.04c.79-2.38,1.52-4.56,2.38-6.97l1.87-5.22c.63-1.75.94-1.44-3.17-1.44-.68,0-.56.89-1.09,2.53l-4.71,14.11c-.35,1.04-1.24,4.86-2.13,5.45-.08-.81-5.22-15.58-5.67-16.77l-1.44-4.26c-.53-1.39-.05-1.09-4.1-1.09.03,1.14,1.67,5.78,2.15,7.02.46,1.17.86,2.31,1.29,3.37l4.89,13.76c.25.66.76,3.14,1.52,3.14h0l-.05.03Z"/>
    <path class="cls-3" d="m660.19,594.84c0,1.98-.28,2.94.53,2.94h8.11v23.48h3.8v-23.48h8.28c.3-1.24.18-1.44.18-2.94,0-.41-.13-.51-.51-.51h-19.86c-.41,0-.53.13-.53.51h0Z"/>
    <path class="cls-3" d="m604.44,549.6v24.52c0,2.91-.63,2.58,3.98,2.58v-26.6c0-1.17-3.65-.63-3.98-.51h0Z"/>
    <path class="cls-3" d="m714.08,549.95v26.24c0,.86,1.47.51,3.8.51v-27.28c-2.33,0-3.8-.35-3.8.51h0v.03Z"/>
    <path class="cls-3" d="m720.21,451.71c-.56-.53-1.72-.35-2.69-.35h-48.33v-22.44h55.22c.61-.15.58-.3.71-.48-2.1.25-16.47.08-19.86.08-10.46,0-24.55-.3-34.88.05-1.17.05-1.44-.2-1.47.86-.08,2.96-.15,21.03,0,22.19,2.76.41,50.89.23,51.3.08h0v.03Z"/>
    <path class="cls-3" d="m727.55,497.29c-1.11,0-2.1.18-3.47.18h-54.9v-27.28h12.94c4.46,0,8.36-.18,12.77-.18h16.06c1.32,0,1.87.18,3.09.18h4.84c.91,0,1.04.15,1.37-.38-8.61.13-17.12,0-25.74,0-.61,0-24.88-.41-25.48.28-.15.2-.51,26.02-.13,27.59,4.53.41,10.11.2,14.74.23l41.09-.08c1.06.05,2.2.25,2.79-.56h0l.03.03Z"/>
  </g>
</svg>