<?xml version="1.0" encoding="UTF-8"?>
<svg id="Capa_1" data-name="Capa 1" xmlns="http://www.w3.org/2000/svg" viewBox="0 0 1920 718.77">
  <defs>
    <style>
      .cls-1 {
        fill: #192a67;
      }
    </style>
  </defs>
  <path class="cls-1" d="m113.1,119.84v365.97c2.81,55.24,67.55,85.38,124.06,89.26,18.84,1.27,39.93,2.07,47.07,5.61,10.83,5.4,13.19,23.36,13.19,23.36,0,0,2.46-17.96,13.32-23.36,7.14-3.55,28.24-4.35,47.06-5.61,57.69-3.95,123.74-35.28,123.92-92.74V119.84H113.1Zm240.1,306.74c-20.59,24.57-40.65,30.87-46.62,34.31v76.33l-19.83-28.56v-47.77c-5.98-3.39-26.63-8.77-46.44-34.3-38.05-42.04-62.76-43.43-62.76-43.43,47.88-6.94,84.54,29.51,109.2,62.52l.17-18.96v-19.2s-5.36,0-5.36,0l-3.65-11.63h9.02v-17.95c11.38-2.98,69.07-18.83,69.5-85.39,0-17.89-10.03-71.26-59.01-70.91-28.77.2-59.41,18.65-59.58,70.91-.37,36.3,20.5,68.46,59.58,75.77-24.91,8.15-39.6,2.19-47.49-1.76-12.35-6.3-22.13-15.56-29.18-27.82-7.1-12.21-11.2-26.3-11.2-44.53,0-14.08,2.07-26.35,6.35-36.8,4.29-10.45,10.39-19.34,18.32-26.67,7.93-7.27,16.53-12.57,25.86-15.79,5.84-2,12.37-4.09,18.74-5.08-4.56-10.13-21.32-20.76-30.73-27.12,27-2.74,37.77,9.38,37.77,9.38.77-13.9,10.81-37.94,11.53-39.77l.05-.15.09.18c.74,1.83,10.03,25.84,10.83,39.74,0,0,10.72-12.11,37.75-9.38-9.26,6.24-25.19,17.17-30.07,27.12,7.5.93,12.62,2.9,18.96,5.59,8.25,3.49,15.82,7.48,22.28,13.17,6.55,5.63,11.54,11.4,14.9,17.3,3.4,5.95,5.94,12.46,7.64,19.52,1.73,7.09,3.59,20.02,3.59,26.98,0,14.45-1.21,23.44-6.19,35.81-3.71,9.24-9.13,17.43-16.28,24.61-7.09,7.12-15.26,12.42-24.24,16.47-12.3,5.55-14.46,6.27-30.09,8.64v17.93h5.34l3.67,11.63h-9.01v19.65s0,0,0,0v18.5c24.69-33.06,61.35-69.47,109.32-62.52,0,0-24.65,1.39-62.7,43.43Zm-55.78-159.02c5.92,0,10.76,4.92,10.76,11.02s-4.83,11-10.76,11-10.67-4.94-10.67-11,4.78-11.02,10.67-11.02Zm-10.67-20.7c0-6.08,4.78-10.98,10.67-10.98s10.76,4.9,10.76,10.98-4.83,10.98-10.76,10.98-10.67-4.91-10.67-10.98Zm21.35,64.21c0,6.07-4.78,10.99-10.72,10.99s-10.63-4.92-10.63-10.99,4.78-11,10.63-11,10.72,4.92,10.72,11Zm-10.68,20.71c5.92,0,10.76,4.93,10.76,11.02s-4.83,11-10.76,11-10.67-4.91-10.67-11,4.78-11.02,10.67-11.02Zm29.87-57.23c-5.87,0-10.63-4.92-10.63-10.99s4.76-11,10.63-11,10.66,4.94,10.66,11-4.76,10.99-10.66,10.99Zm10.72,51.12c0,6.08-4.8,10.98-10.71,10.98s-10.66-4.91-10.66-10.98,4.78-11.01,10.66-11.01,10.71,4.93,10.71,11.01Zm-15.92-41.99c5.91,0,10.7,4.94,10.7,10.98s-4.79,11.01-10.7,11.01-10.67-4.94-10.67-11.01,4.78-10.98,10.67-10.98Zm-54.37,30.96c5.91,0,10.69,4.92,10.69,11s-4.78,11.01-10.69,11.01-10.69-4.92-10.69-11.01,4.78-11,10.69-11Zm-10.63-51.08c0-6.07,4.72-11,10.62-11s10.67,4.94,10.67,11-4.77,10.99-10.67,10.99-10.62-4.92-10.62-10.99Zm15.67,42.12c-5.92,0-10.7-4.94-10.7-11.01s4.78-10.98,10.7-10.98,10.63,4.94,10.63,10.98-4.75,11.01-10.63,11.01Z"/>
  <path class="cls-1" d="m574.31,248.78v-59.94h15.09v59.94c0,17.05,9.33,23.74,20.84,23.74s20.84-6.56,20.84-24.92v-58.76h9.46v59.94c0,23.48-15.09,33.19-33.12,33.19s-33.12-10.37-33.12-33.19"/>
  <path class="cls-1" d="m696.81,280.66v-40.4c0-9.97-2.17-17.31-12.14-17.31-8.31,0-15.98,6.03-16.24,15.22v42.49h-13.81v-65.71h13.81v5.38c4.22-3.68,10.61-6.56,19.82-6.56,17.39,0,22.37,10.23,22.37,26.5v40.4h-13.81Z"/>
  <path class="cls-1" d="m724.68,196.71h13.81v11.28h-13.81v-11.28Zm0,18.36h13.81v65.58h-13.81v-65.58Z"/>
  <path class="cls-1" d="m788.62,280.66h-13.81c-4.09-11.02-20.07-54.57-24.16-65.58h14.57l18.8,51.02,18.79-51.02h9.85c-4.09,11.28-19.94,54.3-24.03,65.58"/>
  <path class="cls-1" d="m833.5,256.26c0,10.37,5.36,16.27,16.24,16.27,8.31,0,14.06-2.23,20.58-8.13l5.12,7.48c-6.39,6.95-16.36,10.1-26.73,10.1-17.77,0-29.02-6.95-29.02-24.79v-20.33c0-17.19,14.32-23.09,30.18-23.09s26.34,5.64,26.34,21.51c0,17.18-13.55,20.98-27.36,20.98h-15.34Zm0-20.2v10.76h14.44c8.7,0,14.32-3.28,14.32-11.02,0-8.13-3.96-12.86-13.04-12.86s-15.72,3.68-15.72,13.12"/>
  <path class="cls-1" d="m926.21,227.01c-2.04-2.88-4.99-4.07-8.44-4.07-8.31,0-15.98,6.04-16.23,15.22v42.5h-13.81v-65.71h13.81v5.37c4.22-3.67,10.48-6.56,19.69-6.56,4.6,0,8.31.78,12.78,2.62-1.79,2.36-6.52,9.05-7.8,10.62"/>
  <path class="cls-1" d="m941.68,271.73l5.24-6.95c4.73,5.64,11.12,8,17.9,8,7.92,0,13.3-3.41,13.3-8.53,0-12.98-34.52-13.38-34.52-33.32,0-10.36,9.72-17.18,24.29-17.18,9.59,0,17.77,3.02,23.65,8.79l-5.11,7.08c-4.86-4.72-10.99-6.81-17.01-6.81-7.41,0-12.78,3.01-12.78,6.95,0,10.63,35.67,10.49,35.67,32.8,0,11.67-10.35,19.41-25.82,19.41-10.36,0-19.05-3.54-24.81-10.23"/>
  <path class="cls-1" d="m1004.47,196.71h13.81v11.28h-13.81v-11.28Zm0,18.36h13.81v65.58h-13.81v-65.58Z"/>
  <path class="cls-1" d="m1077.6,280.66v-3.94c-3.58,2.49-8.82,5.24-18.28,5.24-20.08,0-28.26-17.84-28.26-34.49,0-19.02,8.18-33.71,27.36-33.71,9.72,0,15.08,2.88,19.3,6.29l-.13-31.22h13.81v91.82h-13.81Zm0-43.42c-.12-10.62-8.05-14.68-15.34-14.68-13.42,0-16.36,13.77-16.36,24.79s4.22,25.18,17.26,25.18c8.44,0,14.45-3.02,14.45-12.59v-22.7Z"/>
  <path class="cls-1" d="m1146.4,239.47c0-11.8-5.63-16.52-18.8-16.52-6.13,0-12.91,2.75-18.03,8.39l-5.11-7.47c6.39-6.96,16.36-10.1,26.59-10.1,17.77,0,29.15,6.95,29.15,24.66v42.23h-13.81v-4.07c-4.09,3.28-9.98,5.38-17.13,5.38-15.09,0-26.34-5.64-26.34-21.51,0-16.66,12.66-20.99,26.34-20.99h17.13Zm.13,9.32h-15.34c-8.95,0-14.45,3.28-14.45,11.15,0,9.84,6.27,12.73,15.99,12.73,8.05,0,13.68-4.07,13.68-12.46l.13-11.41Z"/>
  <path class="cls-1" d="m1218.26,280.66v-3.94c-3.58,2.49-8.82,5.24-18.28,5.24-20.08,0-28.26-17.84-28.26-34.49,0-19.02,8.18-33.71,27.36-33.71,9.72,0,15.08,2.88,19.3,6.29l-.13-31.22h13.81v91.82h-13.81Zm0-43.42c-.12-10.62-8.05-14.68-15.34-14.68-13.42,0-16.36,13.77-16.36,24.79s4.22,25.18,17.26,25.18c8.44,0,14.45-3.02,14.45-12.59v-22.7Z"/>
  <path class="cls-1" d="m1320.81,280.66v-3.94c-3.58,2.49-8.82,5.24-18.28,5.24-20.08,0-28.26-17.84-28.26-34.49,0-19.02,8.18-33.71,27.36-33.71,9.72,0,15.08,2.88,19.3,6.29l-.13-31.22h13.81v91.82h-13.81Zm0-43.42c-.12-10.62-8.05-14.68-15.34-14.68-13.42,0-16.36,13.77-16.36,24.79s4.22,25.18,17.26,25.18c8.44,0,14.45-3.02,14.45-12.59v-22.7Z"/>
  <path class="cls-1" d="m1361.22,256.26c0,10.37,5.36,16.27,16.24,16.27,8.31,0,14.06-2.23,20.58-8.13l5.12,7.48c-6.39,6.95-16.36,10.1-26.73,10.1-17.77,0-29.02-6.95-29.02-24.79v-20.33c0-17.19,14.32-23.09,30.18-23.09s26.34,5.64,26.34,21.51c0,17.18-13.55,20.98-27.36,20.98h-15.34Zm0-20.2v10.76h14.44c8.7,0,14.32-3.28,14.32-11.02,0-8.13-3.96-12.86-13.04-12.86s-15.72,3.68-15.72,13.12"/>
  <polygon class="cls-1" points="574.88 511.12 574.88 326.63 606.68 326.63 606.68 492.15 693.75 492.15 693.75 511.12 574.88 511.12"/>
  <path class="cls-1" d="m805.64,428.37c0-23.72-11.86-33.21-39.63-33.21-12.94,0-27.23,5.53-38.01,16.87l-10.78-15.02c13.47-13.97,34.5-20.29,56.07-20.29,37.47,0,61.46,13.97,61.46,49.54v84.87h-29.11v-8.17c-8.63,6.6-21.03,10.81-36.12,10.81-31.81,0-55.53-11.34-55.53-43.23,0-33.46,26.69-42.16,55.53-42.16h36.12Zm.27,18.71h-32.35c-18.87,0-30.46,6.59-30.46,22.41,0,19.76,13.21,25.56,33.69,25.56,16.98,0,28.84-8.17,28.84-25.03l.27-22.93Z"/>
  <path class="cls-1" d="m899.46,486.08l13.75-14.49c16.44,16.6,33.16,22.93,53.92,22.93,23.99,0,38.55-10.54,38.55-27.14,0-45.34-100.82-41.64-100.82-98.05,0-27.67,25.88-45.33,66.32-45.33,27.22,0,50.41,8.44,66.58,23.98l-13.21,14.76c-17.52-14.5-32.88-20.03-52.56-20.03-20.76,0-31.81,7.91-31.81,20.56,0,39.01,99.74,38.47,99.74,98.57,0,31.1-28.84,51.93-71.44,51.93-30.46,0-54.72-11.07-69.01-27.68"/>
  <path class="cls-1" d="m1155.84,428.37c0-23.72-11.86-33.21-39.63-33.21-12.94,0-27.23,5.53-38.01,16.87l-10.78-15.02c13.47-13.97,34.5-20.29,56.07-20.29,37.47,0,61.46,13.97,61.46,49.54v84.87h-29.11v-8.17c-8.63,6.6-21.03,10.81-36.12,10.81-31.81,0-55.53-11.34-55.53-43.23,0-33.46,26.69-42.16,55.53-42.16h36.12Zm.27,18.71h-32.35c-18.87,0-30.46,6.59-30.46,22.41,0,19.76,13.21,25.56,33.69,25.56,16.98,0,28.84-8.17,28.84-25.03l.27-22.93Z"/>
  <path class="cls-1" d="m1241.03,511.12h-29.12v-184.49h29.12v62.99c8.9-7.12,20.21-12.91,40.43-12.91,40.71,0,57.69,29.52,57.69,67.73,0,33.48-16.98,69.32-59.57,69.32-19.68,0-31-5.01-38.55-10.54v7.91Zm0-88.02v46.38c0,19.24,12.94,25.3,30.46,25.3,27.49,0,36.66-28.99,36.66-50.61s-6.47-49.81-34.78-49.81c-15.09,0-31.81,7.91-32.35,28.73"/>
  <path class="cls-1" d="m1452.39,428.37c0-23.72-11.86-33.21-39.63-33.21-12.94,0-27.23,5.53-38.01,16.87l-10.78-15.02c13.47-13.97,34.5-20.29,56.07-20.29,37.47,0,61.46,13.97,61.46,49.54v84.87h-29.11v-8.17c-8.63,6.6-21.03,10.81-36.12,10.81-31.81,0-55.53-11.34-55.53-43.23,0-33.46,26.69-42.16,55.53-42.16h36.12Zm.27,18.71h-32.35c-18.87,0-30.46,6.59-30.46,22.41,0,19.76,13.21,25.56,33.69,25.56,16.98,0,28.84-8.17,28.84-25.03l.27-22.93Z"/>
  <path class="cls-1" d="m1597.43,511.12v-81.17c0-20.03-4.59-34.79-25.61-34.79-17.53,0-33.7,12.12-34.24,30.57v85.39h-29.11v-132.04h29.11v10.8c8.9-7.38,22.37-13.17,41.79-13.17,36.66,0,47.17,20.55,47.17,53.23v81.17h-29.11Z"/>
  <path class="cls-1" d="m1742.47,428.37c0-23.72-11.86-33.21-39.63-33.21-12.94,0-27.23,5.53-38.01,16.87l-10.78-15.02c13.47-13.97,34.5-20.29,56.07-20.29,37.47,0,61.46,13.97,61.46,49.54v84.87h-29.11v-8.17c-8.63,6.6-21.03,10.81-36.12,10.81-31.81,0-55.53-11.34-55.53-43.23,0-33.46,26.69-42.16,55.53-42.16h36.12Zm.27,18.71h-32.35c-18.87,0-30.46,6.59-30.46,22.41,0,19.76,13.21,25.56,33.69,25.56,16.98,0,28.84-8.17,28.84-25.03l.27-22.93Z"/>
</svg>