<?xml version="1.0" encoding="UTF-8"?>
<svg id="Capa_1" data-name="Capa 1" xmlns="http://www.w3.org/2000/svg" viewBox="0 0 1374.59 1080">
  <defs>
    <style>
      .cls-1 {
        fill: #192a67;
      }
    </style>
  </defs>
  <path class="cls-1" d="m500.1,101.29v365c2.8,55.09,67.37,85.16,123.73,89.03,18.79,1.26,39.82,2.06,46.95,5.6,10.8,5.38,13.16,23.3,13.16,23.3,0,0,2.45-17.91,13.28-23.3,7.12-3.54,28.17-4.34,46.94-5.6,57.53-3.94,123.41-35.19,123.6-92.49V101.29h-367.66Zm239.45,305.92c-20.53,24.51-40.55,30.79-46.49,34.23v76.13l-19.77-28.49v-47.65c-5.96-3.38-26.56-8.75-46.32-34.22-37.95-41.93-62.6-43.31-62.6-43.31,47.75-6.92,84.32,29.42,108.91,62.35l.17-18.9.02-19.15h-5.35l-3.64-11.6h8.99v-17.9c11.35-2.97,68.88-18.78,69.32-85.16,0-17.84-10.01-71.07-58.86-70.73-28.7.2-59.25,18.6-59.43,70.73-.37,36.19,20.45,68.27,59.43,75.57-24.85,8.12-39.5,2.18-47.37-1.76-12.32-6.28-22.07-15.52-29.11-27.75-7.08-12.17-11.17-26.24-11.17-44.41,0-14.06,2.07-26.29,6.33-36.71,4.29-10.42,10.37-19.28,18.27-26.6,7.91-7.26,16.49-12.53,25.8-15.75,5.83-2,12.33-4.08,18.68-5.07-4.54-10.1-21.26-20.7-30.65-27.05,26.93-2.72,37.68,9.35,37.68,9.35.77-13.87,10.78-37.84,11.49-39.66l.05-.15.08.18c.74,1.82,10,25.77,10.8,39.64,0,0,10.69-12.08,37.65-9.35-9.23,6.22-25.13,17.13-29.99,27.05,7.48.93,12.59,2.9,18.92,5.58,8.22,3.48,15.77,7.47,22.21,13.14,6.53,5.62,11.51,11.37,14.86,17.25,3.39,5.93,5.92,12.42,7.62,19.46,1.72,7.08,3.58,19.97,3.58,26.91,0,14.41-1.2,23.38-6.17,35.72-3.69,9.22-9.1,17.39-16.24,24.54-7.06,7.1-15.23,12.4-24.17,16.43-12.28,5.54-14.43,6.26-30.02,8.62v17.89h5.33l3.67,11.6h-8.99v19.6s0,0,0,0v18.45c24.63-32.98,61.2-69.29,109.02-62.35,0,0-24.58,1.38-62.53,43.31Zm-55.63-158.59c5.91,0,10.73,4.9,10.73,10.99s-4.82,10.97-10.73,10.97-10.64-4.93-10.64-10.97,4.77-10.99,10.64-10.99Zm-10.64-20.65c0-6.07,4.77-10.95,10.64-10.95s10.73,4.88,10.73,10.95-4.82,10.95-10.73,10.95-10.64-4.89-10.64-10.95Zm21.3,64.04c0,6.05-4.77,10.96-10.69,10.96s-10.61-4.91-10.61-10.96,4.76-10.97,10.61-10.97,10.69,4.92,10.69,10.97Zm-10.66,20.65c5.91,0,10.73,4.92,10.73,11s-4.82,10.97-10.73,10.97-10.64-4.9-10.64-10.97,4.77-11,10.64-11Zm29.78-57.08c-5.84,0-10.6-4.9-10.6-10.96s4.76-10.97,10.6-10.97,10.63,4.93,10.63,10.97-4.75,10.96-10.63,10.96Zm10.69,50.99c0,6.06-4.79,10.96-10.68,10.96s-10.63-4.89-10.63-10.96,4.77-10.99,10.63-10.99,10.68,4.92,10.68,10.99Zm-15.89-41.88c5.9,0,10.67,4.92,10.67,10.95s-4.77,10.99-10.67,10.99-10.65-4.93-10.65-10.99,4.77-10.95,10.65-10.95Zm-54.22,30.87c5.89,0,10.66,4.91,10.66,10.97s-4.77,10.99-10.66,10.99-10.66-4.9-10.66-10.99,4.77-10.97,10.66-10.97Zm-10.61-50.94c0-6.05,4.71-10.97,10.6-10.97s10.65,4.93,10.65,10.97-4.77,10.96-10.65,10.96-10.6-4.9-10.6-10.96Zm15.64,42.01c-5.91,0-10.67-4.93-10.67-10.99s4.77-10.95,10.67-10.95,10.6,4.92,10.6,10.95-4.74,10.99-10.6,10.99Z"/>
  <path class="cls-1" d="m273.38,664.51v-59.8h15v59.8c0,17.01,9.28,23.68,20.72,23.68s20.73-6.54,20.73-24.86v-58.63h9.41v59.8c0,23.43-15,33.11-32.93,33.11s-32.93-10.34-32.93-33.11"/>
  <path class="cls-1" d="m395.16,696.31v-40.31c0-9.95-2.16-17.27-12.08-17.27-8.26,0-15.89,6.02-16.15,15.18v42.4h-13.73v-65.57h13.73v5.37c4.19-3.66,10.55-6.54,19.71-6.54,17.29,0,22.25,10.21,22.25,26.43v40.31h-13.73Z"/>
  <path class="cls-1" d="m422.86,612.56h13.73v11.25h-13.73v-11.25Zm0,18.32h13.73v65.43h-13.73v-65.43Z"/>
  <path class="cls-1" d="m486.42,696.31h-13.73c-4.07-10.99-19.96-54.44-24.03-65.43h14.49l18.69,50.91,18.69-50.91h9.79c-4.07,11.25-19.83,54.18-23.9,65.43"/>
  <path class="cls-1" d="m531.03,671.97c0,10.34,5.34,16.23,16.15,16.23,8.26,0,13.99-2.22,20.47-8.11l5.09,7.46c-6.35,6.93-16.27,10.08-26.57,10.08-17.67,0-28.86-6.94-28.86-24.73v-20.28c0-17.14,14.24-23.04,30-23.04s26.2,5.63,26.2,21.47c0,17.14-13.48,20.94-27.21,20.94h-15.26Zm0-20.15v10.73h14.37c8.64,0,14.24-3.27,14.24-10.99,0-8.12-3.94-12.83-12.96-12.83s-15.64,3.67-15.64,13.09"/>
  <path class="cls-1" d="m623.19,642.79c-2.03-2.88-4.96-4.06-8.39-4.06-8.26,0-15.89,6.02-16.14,15.18v42.4h-13.73v-65.56h13.73v5.37c4.19-3.67,10.42-6.55,19.58-6.55,4.58,0,8.26.78,12.71,2.62-1.77,2.35-6.48,9.03-7.75,10.6"/>
  <path class="cls-1" d="m638.56,687.41l5.21-6.93c4.7,5.63,11.06,7.99,17.8,7.99,7.88,0,13.22-3.4,13.22-8.51,0-12.96-34.33-13.35-34.33-33.24,0-10.34,9.66-17.14,24.16-17.14,9.54,0,17.67,3.01,23.52,8.77l-5.09,7.06c-4.83-4.71-10.94-6.8-16.91-6.8-7.37,0-12.71,3.01-12.71,6.93,0,10.6,35.47,10.47,35.47,32.71,0,11.65-10.3,19.37-25.68,19.37-10.3,0-18.94-3.54-24.67-10.21"/>
  <path class="cls-1" d="m700.97,612.56h13.73v11.25h-13.73v-11.25Zm0,18.32h13.73v65.43h-13.73v-65.43Z"/>
  <path class="cls-1" d="m773.69,696.31v-3.93c-3.56,2.48-8.77,5.23-18.18,5.23-19.97,0-28.1-17.8-28.1-34.42,0-18.97,8.14-33.64,27.21-33.64,9.66,0,15,2.88,19.19,6.29l-.12-31.15h13.73v91.61h-13.73Zm0-43.32c-.13-10.6-8.01-14.66-15.26-14.66-13.34,0-16.27,13.74-16.27,24.73s4.19,25.13,17.17,25.13c8.39,0,14.36-3.01,14.36-12.57v-22.64Z"/>
  <path class="cls-1" d="m842.07,655.22c0-11.78-5.6-16.49-18.69-16.49-6.1,0-12.83,2.75-17.93,8.37l-5.08-7.46c6.35-6.93,16.27-10.08,26.45-10.08,17.67,0,28.99,6.94,28.99,24.6v42.14h-13.73v-4.06c-4.07,3.27-9.92,5.37-17.04,5.37-15,0-26.19-5.63-26.19-21.47,0-16.62,12.59-20.94,26.19-20.94h17.04Zm.13,9.29h-15.25c-8.9,0-14.37,3.27-14.37,11.12,0,9.82,6.23,12.69,15.89,12.69,8.01,0,13.61-4.05,13.61-12.43l.13-11.38Z"/>
  <path class="cls-1" d="m913.5,696.31v-3.93c-3.56,2.48-8.77,5.23-18.18,5.23-19.97,0-28.1-17.8-28.1-34.42,0-18.97,8.14-33.64,27.21-33.64,9.66,0,15,2.88,19.19,6.29l-.12-31.15h13.73v91.61h-13.73Zm0-43.32c-.13-10.6-8.01-14.66-15.26-14.66-13.34,0-16.27,13.74-16.27,24.73s4.19,25.13,17.17,25.13c8.39,0,14.36-3.01,14.36-12.57v-22.64Z"/>
  <path class="cls-1" d="m1015.44,696.31v-3.93c-3.56,2.48-8.77,5.23-18.18,5.23-19.97,0-28.1-17.8-28.1-34.42,0-18.97,8.14-33.64,27.21-33.64,9.66,0,15,2.88,19.19,6.29l-.12-31.15h13.73v91.61h-13.73Zm0-43.32c-.13-10.6-8.01-14.66-15.26-14.66-13.34,0-16.27,13.74-16.27,24.73s4.19,25.13,17.17,25.13c8.39,0,14.36-3.01,14.36-12.57v-22.64Z"/>
  <path class="cls-1" d="m1055.6,671.97c0,10.34,5.34,16.23,16.15,16.23,8.26,0,13.99-2.22,20.47-8.11l5.09,7.46c-6.35,6.93-16.27,10.08-26.57,10.08-17.67,0-28.86-6.94-28.86-24.73v-20.28c0-17.14,14.24-23.04,30-23.04s26.2,5.63,26.2,21.47c0,17.14-13.48,20.94-27.21,20.94h-15.26Zm0-20.15v10.73h14.37c8.64,0,14.24-3.27,14.24-10.99,0-8.12-3.94-12.83-12.96-12.83s-15.64,3.67-15.64,13.09"/>
  <polygon class="cls-1" points="88.64 924.05 88.64 740.04 120.33 740.04 120.33 905.12 207.09 905.12 207.09 924.05 88.64 924.05"/>
  <path class="cls-1" d="m318.57,841.5c0-23.65-11.82-33.12-39.48-33.12-12.9,0-27.13,5.52-37.87,16.82l-10.75-14.98c13.43-13.93,34.38-20.24,55.87-20.24,37.34,0,61.24,13.94,61.24,49.42v84.64h-29.01v-8.15c-8.59,6.57-20.94,10.78-35.99,10.78-31.69,0-55.32-11.3-55.32-43.11,0-33.38,26.58-42.06,55.32-42.06h35.99Zm.27,18.66h-32.23c-18.8,0-30.35,6.57-30.35,22.34,0,19.72,13.16,25.5,33.57,25.5,16.92,0,28.74-8.14,28.74-24.97l.27-22.87Z"/>
  <path class="cls-1" d="m412.06,899.08l13.69-14.46c16.39,16.56,33.04,22.87,53.72,22.87,23.9,0,38.4-10.51,38.4-27.08,0-45.21-100.45-41.53-100.45-97.79,0-27.6,25.79-45.21,66.07-45.21,27.13,0,50.23,8.41,66.34,23.92l-13.16,14.72c-17.47-14.45-32.77-19.98-52.37-19.98-20.68,0-31.69,7.89-31.69,20.51,0,38.9,99.37,38.38,99.37,98.31,0,31.02-28.74,51.78-71.17,51.78-30.36,0-54.53-11.04-68.76-27.6"/>
  <path class="cls-1" d="m667.5,841.5c0-23.65-11.82-33.12-39.48-33.12-12.9,0-27.13,5.52-37.87,16.82l-10.75-14.98c13.43-13.93,34.38-20.24,55.87-20.24,37.34,0,61.24,13.94,61.24,49.42v84.64h-29.01v-8.15c-8.59,6.57-20.94,10.78-35.99,10.78-31.69,0-55.32-11.3-55.32-43.11,0-33.38,26.58-42.06,55.32-42.06h35.99Zm.27,18.66h-32.23c-18.8,0-30.35,6.57-30.35,22.34,0,19.72,13.16,25.5,33.57,25.5,16.92,0,28.74-8.14,28.74-24.97l.27-22.87Z"/>
  <path class="cls-1" d="m752.4,924.05h-29.01v-184h29.01v62.82c8.87-7.1,20.14-12.88,40.28-12.88,40.56,0,57.48,29.44,57.48,67.55,0,33.39-16.92,69.13-59.35,69.13-19.61,0-30.89-5-38.41-10.51v7.88Zm0-87.79v46.26c0,19.19,12.89,25.24,30.35,25.24,27.39,0,36.53-28.92,36.53-50.47s-6.44-49.68-34.65-49.68c-15.04,0-31.69,7.88-32.23,28.65"/>
  <path class="cls-1" d="m962.98,841.5c0-23.65-11.82-33.12-39.48-33.12-12.9,0-27.13,5.52-37.87,16.82l-10.75-14.98c13.43-13.93,34.38-20.24,55.87-20.24,37.34,0,61.24,13.94,61.24,49.42v84.64h-29.01v-8.15c-8.59,6.57-20.94,10.78-35.99,10.78-31.69,0-55.32-11.3-55.32-43.11,0-33.38,26.58-42.06,55.32-42.06h35.99Zm.27,18.66h-32.23c-18.8,0-30.35,6.57-30.35,22.34,0,19.72,13.16,25.5,33.57,25.5,16.92,0,28.74-8.14,28.74-24.97l.27-22.87Z"/>
  <path class="cls-1" d="m1107.51,924.05v-80.96c0-19.98-4.56-34.7-25.51-34.7-17.46,0-33.57,12.09-34.11,30.49v85.17h-29.01v-131.69h29.01v10.78c8.86-7.36,22.29-13.14,41.63-13.14,36.53,0,47,20.51,47,53.1v80.96h-29.01Z"/>
  <path class="cls-1" d="m1252.03,841.5c0-23.65-11.82-33.12-39.48-33.12-12.9,0-27.13,5.52-37.87,16.82l-10.75-14.98c13.43-13.93,34.38-20.24,55.87-20.24,37.34,0,61.24,13.94,61.24,49.42v84.64h-29.01v-8.15c-8.59,6.57-20.94,10.78-35.99,10.78-31.69,0-55.32-11.3-55.32-43.11,0-33.38,26.58-42.06,55.32-42.06h35.99Zm.27,18.66h-32.23c-18.8,0-30.35,6.57-30.35,22.34,0,19.72,13.16,25.5,33.57,25.5,16.92,0,28.74-8.14,28.74-24.97l.27-22.87Z"/>
</svg>