<?xml version="1.0" encoding="UTF-8"?>
<svg id="Capa_1" data-name="Capa 1" xmlns="http://www.w3.org/2000/svg" viewBox="0 0 1374.59 1080">
  <defs>
    <style>
      .cls-1 {
        fill: #fff;
      }
    </style>
  </defs>
  <path class="cls-1" d="m492.15,158.04v337.82c2.6,50.99,62.36,78.82,114.52,82.4,17.4,1.17,36.86,1.91,43.46,5.18,9.99,4.98,12.18,21.57,12.18,21.57,0,0,2.27-16.59,12.29-21.57,6.6-3.27,26.07-4.01,43.45-5.18,53.25-3.64,114.23-32.56,114.39-85.61V158.04h-340.28Zm221.63,283.14c-19,22.68-37.52,28.49-43.03,31.68v70.45l-18.3-26.37v-44.09c-5.52-3.13-24.58-8.1-42.87-31.67-35.12-38.81-57.93-40.09-57.93-40.09,44.19-6.41,78.03,27.23,100.8,57.71l.15-17.5v-17.72s-4.94,0-4.94,0l-3.37-10.75h8.32v-16.55c10.51-2.75,63.76-17.38,64.16-78.83,0-16.51-9.27-65.78-54.48-65.46-26.56.18-54.84,17.22-55.01,65.46-.34,33.5,18.92,63.19,55.01,69.94-23,7.52-36.57,2.02-43.84-1.63-11.4-5.81-20.43-14.36-26.94-25.69-6.55-11.27-10.34-24.27-10.34-41.09,0-13.01,1.91-24.33,5.85-33.98,3.97-9.65,9.6-17.85,16.92-24.62,7.31-6.71,15.26-11.6,23.87-14.57,5.39-1.85,11.42-3.77,17.29-4.69-4.21-9.35-19.68-19.16-28.36-25.04,24.93-2.52,34.87,8.66,34.87,8.66.71-12.84,9.97-35.02,10.64-36.71l.05-.14.07.16c.69,1.68,9.27,23.84,10.01,36.68,0,0,9.89-11.18,34.84-8.66-8.54,5.76-23.25,15.85-27.76,25.04,6.92.86,11.65,2.69,17.51,5.16,7.61,3.22,14.6,6.91,20.56,12.16,6.04,5.19,10.66,10.52,13.75,15.97,3.14,5.48,5.48,11.5,7.05,18.01,1.6,6.55,3.31,18.49,3.31,24.91,0,13.34-1.11,21.63-5.71,33.06-3.43,8.54-8.43,16.1-15.03,22.72-6.54,6.57-14.09,11.47-22.37,15.21-11.36,5.12-13.35,5.79-27.78,7.97v16.55h4.93l3.39,10.75h-8.32v18.14s0,0,0,0v17.08c22.79-30.52,56.64-64.13,100.91-57.71,0,0-22.75,1.28-57.88,40.09Zm-51.49-146.79c5.47,0,9.93,4.54,9.93,10.17s-4.46,10.15-9.93,10.15-9.85-4.56-9.85-10.15,4.41-10.17,9.85-10.17Zm-9.85-19.11c0-5.62,4.41-10.14,9.85-10.14s9.93,4.52,9.93,10.14-4.46,10.14-9.93,10.14-9.85-4.53-9.85-10.14Zm19.71,59.27c0,5.6-4.41,10.15-9.89,10.15s-9.81-4.55-9.81-10.15,4.41-10.15,9.81-10.15,9.89,4.55,9.89,10.15Zm-9.86,19.12c5.47,0,9.93,4.55,9.93,10.18s-4.46,10.15-9.93,10.15-9.85-4.54-9.85-10.15,4.41-10.18,9.85-10.18Zm27.57-52.83c-5.41,0-9.82-4.53-9.82-10.14s4.41-10.16,9.82-10.16,9.83,4.56,9.83,10.16-4.39,10.14-9.83,10.14Zm9.89,47.19c0,5.6-4.43,10.14-9.89,10.14s-9.84-4.53-9.84-10.14,4.41-10.16,9.84-10.16,9.89,4.55,9.89,10.16Zm-14.71-38.76c5.46,0,9.88,4.56,9.88,10.14s-4.42,10.17-9.88,10.17-9.85-4.56-9.85-10.17,4.41-10.14,9.85-10.14Zm-50.18,28.58c5.45,0,9.87,4.53,9.87,10.15s-4.41,10.17-9.87,10.17-9.87-4.54-9.87-10.17,4.41-10.15,9.87-10.15Zm-9.82-47.15c0-5.6,4.36-10.16,9.81-10.16s9.85,4.56,9.85,10.16-4.41,10.14-9.85,10.14-9.81-4.53-9.81-10.14Zm14.47,38.88c-5.47,0-9.88-4.56-9.88-10.17s4.41-10.14,9.88-10.14,9.82,4.56,9.82,10.14-4.39,10.17-9.82,10.17Z"/>
  <path class="cls-1" d="m282.32,679.32v-55.33h13.88v55.33c0,15.74,8.59,21.91,19.17,21.91s19.17-6.05,19.17-23v-54.24h8.7v55.33c0,21.67-13.88,30.63-30.45,30.63s-30.46-9.56-30.46-30.63"/>
  <path class="cls-1" d="m395.01,708.75v-37.29c0-9.2-2-15.98-11.17-15.98-7.64,0-14.7,5.57-14.94,14.05v39.23h-12.7v-60.66h12.7v4.96c3.88-3.39,9.77-6.05,18.23-6.05,15.99,0,20.58,9.45,20.58,24.46v37.29h-12.7Z"/>
  <path class="cls-1" d="m420.67,631.25h12.7v10.41h-12.7v-10.41Zm0,16.95h12.7v60.54h-12.7v-60.54Z"/>
  <path class="cls-1" d="m479.48,708.75h-12.7c-3.77-10.17-18.47-50.37-22.23-60.54h13.41l17.29,47.1,17.29-47.1h9.05c-3.76,10.41-18.35,50.13-22.11,60.54"/>
  <path class="cls-1" d="m520.78,686.22c0,9.57,4.94,15.02,14.93,15.02,7.64,0,12.94-2.06,18.94-7.5l4.71,6.9c-5.88,6.42-15.05,9.32-24.58,9.32-16.35,0-26.69-6.42-26.69-22.89v-18.76c0-15.86,13.17-21.31,27.75-21.31s24.22,5.21,24.22,19.85c0,15.86-12.46,19.37-25.16,19.37h-14.12Zm0-18.64v9.93h13.29c8,0,13.17-3.03,13.17-10.17,0-7.51-3.64-11.87-11.99-11.87s-14.46,3.39-14.46,12.11"/>
  <path class="cls-1" d="m606.06,659.22c-1.88-2.66-4.59-3.76-7.76-3.76-7.64,0-14.7,5.57-14.93,14.05v39.23h-12.7v-60.66h12.7v4.96c3.88-3.39,9.64-6.05,18.11-6.05,4.23,0,7.64.73,11.76,2.42-1.65,2.18-6,8.36-7.18,9.81"/>
  <path class="cls-1" d="m620.31,700.51l4.82-6.42c4.36,5.21,10.23,7.38,16.47,7.38,7.3,0,12.23-3.15,12.23-7.87,0-11.98-31.75-12.35-31.75-30.75,0-9.57,8.94-15.86,22.34-15.86,8.82,0,16.35,2.79,21.75,8.12l-4.7,6.54c-4.47-4.36-10.12-6.29-15.64-6.29-6.82,0-11.76,2.79-11.76,6.42,0,9.81,32.81,9.69,32.81,30.27,0,10.77-9.52,17.92-23.75,17.92-9.52,0-17.53-3.27-22.82-9.45"/>
  <path class="cls-1" d="m678.07,631.25h12.7v10.41h-12.7v-10.41Zm0,16.95h12.7v60.54h-12.7v-60.54Z"/>
  <path class="cls-1" d="m745.35,708.75v-3.64c-3.29,2.3-8.12,4.84-16.82,4.84-18.46,0-25.99-16.47-25.99-31.85,0-17.55,7.53-31.11,25.17-31.11,8.94,0,13.88,2.67,17.76,5.81l-.12-28.82h12.7v84.76h-12.7Zm0-40.08c-.12-9.8-7.41-13.56-14.12-13.56-12.34,0-15.05,12.71-15.05,22.88s3.88,23.25,15.87,23.25c7.76,0,13.29-2.78,13.29-11.62v-20.95Z"/>
  <path class="cls-1" d="m808.64,670.73c0-10.9-5.17-15.26-17.29-15.26-5.64,0-11.87,2.55-16.58,7.75l-4.7-6.9c5.88-6.42,15.05-9.32,24.46-9.32,16.35,0,26.81,6.42,26.81,22.77v38.99h-12.7v-3.76c-3.76,3.03-9.17,4.96-15.76,4.96-13.88,0-24.23-5.21-24.23-19.85,0-15.38,11.65-19.37,24.23-19.37h15.76Zm.12,8.59h-14.12c-8.23,0-13.29,3.03-13.29,10.29,0,9.08,5.76,11.74,14.71,11.74,7.41,0,12.58-3.75,12.58-11.49l.12-10.54Z"/>
  <path class="cls-1" d="m874.76,708.75v-3.64c-3.29,2.3-8.12,4.84-16.82,4.84-18.46,0-25.99-16.47-25.99-31.85,0-17.55,7.53-31.11,25.17-31.11,8.94,0,13.88,2.67,17.76,5.81l-.12-28.82h12.7v84.76h-12.7Zm0-40.08c-.12-9.8-7.41-13.56-14.12-13.56-12.34,0-15.05,12.71-15.05,22.88s3.88,23.25,15.87,23.25c7.76,0,13.29-2.78,13.29-11.62v-20.95Z"/>
  <path class="cls-1" d="m969.1,708.75v-3.64c-3.29,2.3-8.12,4.84-16.82,4.84-18.46,0-25.99-16.47-25.99-31.85,0-17.55,7.53-31.11,25.17-31.11,8.94,0,13.88,2.67,17.76,5.81l-.12-28.82h12.7v84.76h-12.7Zm0-40.08c-.12-9.8-7.41-13.56-14.12-13.56-12.34,0-15.05,12.71-15.05,22.88s3.88,23.25,15.87,23.25c7.76,0,13.29-2.78,13.29-11.62v-20.95Z"/>
  <path class="cls-1" d="m1006.29,686.22c0,9.57,4.94,15.02,14.93,15.02,7.64,0,12.94-2.06,18.94-7.5l4.71,6.9c-5.88,6.42-15.05,9.32-24.58,9.32-16.35,0-26.69-6.42-26.69-22.89v-18.76c0-15.86,13.17-21.31,27.75-21.31s24.22,5.21,24.22,19.85c0,15.86-12.46,19.37-25.16,19.37h-14.12Zm0-18.64v9.93h13.29c8,0,13.17-3.03,13.17-10.17,0-7.51-3.64-11.87-11.99-11.87s-14.46,3.39-14.46,12.11"/>
  <polygon class="cls-1" points="111.34 919.53 111.34 749.27 140.68 749.27 140.68 902.02 220.98 902.02 220.98 919.53 111.34 919.53"/>
  <path class="cls-1" d="m324.15,843.16c0-21.89-10.94-30.64-36.55-30.64-11.93,0-25.11,5.1-35.06,15.57l-9.94-13.86c12.43-12.89,31.82-18.73,51.72-18.73,34.56,0,56.69,12.89,56.69,45.73v78.32h-26.86v-7.54c-7.95,6.08-19.39,9.97-33.31,9.97-29.34,0-51.22-10.46-51.22-39.89,0-30.89,24.62-38.92,51.22-38.92h33.31Zm.25,17.27h-29.83c-17.4,0-28.1,6.08-28.1,20.67,0,18.25,12.18,23.6,31.08,23.6,15.66,0,26.6-7.54,26.6-23.11l.25-21.16Z"/>
  <path class="cls-1" d="m410.67,896.42l12.68-13.38c15.17,15.32,30.59,21.16,49.73,21.16,22.13,0,35.56-9.73,35.56-25.05,0-41.84-92.99-38.43-92.99-90.48,0-25.54,23.87-41.84,61.16-41.84,25.12,0,46.5,7.78,61.42,22.13l-12.18,13.62c-16.16-13.38-30.33-18.49-48.48-18.49-19.15,0-29.34,7.3-29.34,18.97,0,36,91.99,35.51,91.99,90.96,0,28.71-26.6,47.92-65.89,47.92-28.1,0-50.47-10.22-63.65-25.54"/>
  <path class="cls-1" d="m647.11,843.16c0-21.89-10.94-30.64-36.55-30.64-11.93,0-25.11,5.1-35.06,15.57l-9.94-13.86c12.43-12.89,31.82-18.73,51.72-18.73,34.56,0,56.69,12.89,56.69,45.73v78.32h-26.86v-7.54c-7.95,6.08-19.39,9.97-33.31,9.97-29.34,0-51.22-10.46-51.22-39.89,0-30.89,24.62-38.92,51.22-38.92h33.31Zm.25,17.27h-29.83c-17.4,0-28.1,6.08-28.1,20.67,0,18.25,12.18,23.6,31.08,23.6,15.66,0,26.6-7.54,26.6-23.11l.25-21.16Z"/>
  <path class="cls-1" d="m725.68,919.53h-26.85v-170.26h26.85v58.13c8.21-6.57,18.65-11.92,37.29-11.92,37.54,0,53.21,27.24,53.21,62.51,0,30.89-15.67,63.97-54.95,63.97-18.14,0-28.59-4.62-35.55-9.73v7.3Zm0-81.24v42.8c0,17.76,11.94,23.35,28.1,23.35,25.36,0,33.81-26.75,33.81-46.7s-5.97-45.97-32.08-45.97c-13.92,0-29.33,7.3-29.83,26.52"/>
  <path class="cls-1" d="m920.59,843.16c0-21.89-10.94-30.64-36.55-30.64-11.93,0-25.11,5.1-35.06,15.57l-9.94-13.86c12.43-12.89,31.82-18.73,51.72-18.73,34.56,0,56.69,12.89,56.69,45.73v78.32h-26.86v-7.54c-7.95,6.08-19.39,9.97-33.31,9.97-29.34,0-51.22-10.46-51.22-39.89,0-30.89,24.62-38.92,51.22-38.92h33.31Zm.25,17.27h-29.83c-17.4,0-28.1,6.08-28.1,20.67,0,18.25,12.18,23.6,31.08,23.6,15.66,0,26.6-7.54,26.6-23.11l.25-21.16Z"/>
  <path class="cls-1" d="m1054.36,919.53v-74.91c0-18.49-4.22-32.11-23.62-32.11-16.17,0-31.08,11.19-31.58,28.21v78.81h-26.85v-121.86h26.85v9.97c8.21-6.81,20.64-12.16,38.54-12.16,33.81,0,43.51,18.97,43.51,49.13v74.91h-26.85Z"/>
  <path class="cls-1" d="m1188.12,843.16c0-21.89-10.94-30.64-36.55-30.64-11.93,0-25.11,5.1-35.06,15.57l-9.94-13.86c12.43-12.89,31.82-18.73,51.72-18.73,34.56,0,56.69,12.89,56.69,45.73v78.32h-26.86v-7.54c-7.95,6.08-19.39,9.97-33.31,9.97-29.34,0-51.22-10.46-51.22-39.89,0-30.89,24.62-38.92,51.22-38.92h33.31Zm.25,17.27h-29.83c-17.4,0-28.1,6.08-28.1,20.67,0,18.25,12.18,23.6,31.08,23.6,15.66,0,26.6-7.54,26.6-23.11l.25-21.16Z"/>
</svg>